<mxfile host="app.diagrams.net" agent="Mozilla/5.0 (Windows NT 10.0; Win64; x64) AppleWebKit/537.36 (KHTML, like Gecko) Chrome/133.0.0.0 Safari/537.36" version="26.0.14">
  <diagram name="第 1 页" id="rTBD2qRRZxsazja_bbIo">
    <mxGraphModel dx="1434" dy="1138" grid="0" gridSize="10" guides="1" tooltips="1" connect="1" arrows="1" fold="1" page="0" pageScale="1" pageWidth="827" pageHeight="1169" math="0" shadow="0">
      <root>
        <mxCell id="0" />
        <mxCell id="1" parent="0" />
        <mxCell id="ISMIpiO5yM2ydOalU18I-304" value="" style="rounded=0;whiteSpace=wrap;html=1;strokeColor=#6c8ebf;fillColor=#dae8fc;" vertex="1" parent="1">
          <mxGeometry x="6576" y="495" width="686" height="1201" as="geometry" />
        </mxCell>
        <mxCell id="ISMIpiO5yM2ydOalU18I-265" value="" style="rounded=0;whiteSpace=wrap;html=1;strokeColor=#6c8ebf;fillColor=#dae8fc;" vertex="1" parent="1">
          <mxGeometry x="5591" y="505" width="747" height="1793" as="geometry" />
        </mxCell>
        <mxCell id="ISMIpiO5yM2ydOalU18I-175" value="" style="rounded=0;whiteSpace=wrap;html=1;strokeColor=#6c8ebf;fillColor=#dae8fc;" vertex="1" parent="1">
          <mxGeometry x="3948" y="473" width="580" height="802" as="geometry" />
        </mxCell>
        <mxCell id="ISMIpiO5yM2ydOalU18I-139" value="" style="rounded=0;whiteSpace=wrap;html=1;strokeColor=#6c8ebf;fillColor=#dae8fc;" vertex="1" parent="1">
          <mxGeometry x="3149" y="523" width="718" height="1174" as="geometry" />
        </mxCell>
        <mxCell id="ISMIpiO5yM2ydOalU18I-63" value="" style="rounded=0;whiteSpace=wrap;html=1;strokeColor=#6c8ebf;fillColor=#dae8fc;" vertex="1" parent="1">
          <mxGeometry x="709" y="226" width="669" height="1080" as="geometry" />
        </mxCell>
        <mxCell id="ISMIpiO5yM2ydOalU18I-4" value="" style="edgeStyle=orthogonalEdgeStyle;rounded=0;orthogonalLoop=1;jettySize=auto;html=1;strokeColor=#E07A5F;fontColor=#393C56;fillColor=#F2CC8F;" edge="1" parent="1" source="ISMIpiO5yM2ydOalU18I-1" target="ISMIpiO5yM2ydOalU18I-3">
          <mxGeometry relative="1" as="geometry" />
        </mxCell>
        <mxCell id="ISMIpiO5yM2ydOalU18I-1" value="开始" style="strokeWidth=2;html=1;shape=mxgraph.flowchart.start_2;whiteSpace=wrap;strokeColor=#E07A5F;fontColor=#393C56;fillColor=#F2CC8F;" vertex="1" parent="1">
          <mxGeometry x="208" y="56" width="100" height="100" as="geometry" />
        </mxCell>
        <mxCell id="ISMIpiO5yM2ydOalU18I-2" value="com.zatech.bank.ekyc.provider.process.approve.service.noedit.&lt;div&gt;AbstractManualApproveNoEditService#doReject&lt;/div&gt;" style="text;html=1;align=center;verticalAlign=middle;whiteSpace=wrap;rounded=0;fontColor=#393C56;" vertex="1" parent="1">
          <mxGeometry x="59" y="-66" width="435" height="90" as="geometry" />
        </mxCell>
        <mxCell id="ISMIpiO5yM2ydOalU18I-6" style="edgeStyle=orthogonalEdgeStyle;rounded=0;orthogonalLoop=1;jettySize=auto;html=1;exitX=1;exitY=0.5;exitDx=0;exitDy=0;strokeColor=#E07A5F;fontColor=#393C56;fillColor=#F2CC8F;" edge="1" parent="1" source="ISMIpiO5yM2ydOalU18I-3" target="ISMIpiO5yM2ydOalU18I-5">
          <mxGeometry relative="1" as="geometry" />
        </mxCell>
        <mxCell id="ISMIpiO5yM2ydOalU18I-7" value="N" style="edgeLabel;html=1;align=center;verticalAlign=middle;resizable=0;points=[];strokeColor=#E07A5F;fontColor=#393C56;fillColor=#F2CC8F;" vertex="1" connectable="0" parent="ISMIpiO5yM2ydOalU18I-6">
          <mxGeometry x="0.0725" y="-3" relative="1" as="geometry">
            <mxPoint as="offset" />
          </mxGeometry>
        </mxCell>
        <mxCell id="ISMIpiO5yM2ydOalU18I-9" value="" style="edgeStyle=orthogonalEdgeStyle;rounded=0;orthogonalLoop=1;jettySize=auto;html=1;strokeColor=#E07A5F;fontColor=#393C56;fillColor=#F2CC8F;" edge="1" parent="1" source="ISMIpiO5yM2ydOalU18I-3" target="ISMIpiO5yM2ydOalU18I-8">
          <mxGeometry relative="1" as="geometry" />
        </mxCell>
        <mxCell id="ISMIpiO5yM2ydOalU18I-10" value="Y" style="edgeLabel;html=1;align=center;verticalAlign=middle;resizable=0;points=[];strokeColor=#E07A5F;fontColor=#393C56;fillColor=#F2CC8F;" vertex="1" connectable="0" parent="ISMIpiO5yM2ydOalU18I-9">
          <mxGeometry x="-0.2444" y="4" relative="1" as="geometry">
            <mxPoint as="offset" />
          </mxGeometry>
        </mxCell>
        <mxCell id="ISMIpiO5yM2ydOalU18I-3" value="审批结果是reject" style="rhombus;whiteSpace=wrap;html=1;fillColor=#F2CC8F;strokeColor=#E07A5F;fontColor=#393C56;strokeWidth=2;" vertex="1" parent="1">
          <mxGeometry x="218" y="246" width="80" height="80" as="geometry" />
        </mxCell>
        <mxCell id="ISMIpiO5yM2ydOalU18I-5" value="结束" style="strokeWidth=2;html=1;shape=mxgraph.flowchart.terminator;whiteSpace=wrap;strokeColor=#E07A5F;fontColor=#393C56;fillColor=#F2CC8F;" vertex="1" parent="1">
          <mxGeometry x="494" y="256" width="100" height="60" as="geometry" />
        </mxCell>
        <mxCell id="ISMIpiO5yM2ydOalU18I-12" value="" style="edgeStyle=orthogonalEdgeStyle;rounded=0;orthogonalLoop=1;jettySize=auto;html=1;strokeColor=#E07A5F;fontColor=#393C56;fillColor=#F2CC8F;" edge="1" parent="1" source="ISMIpiO5yM2ydOalU18I-8" target="ISMIpiO5yM2ydOalU18I-11">
          <mxGeometry relative="1" as="geometry" />
        </mxCell>
        <mxCell id="ISMIpiO5yM2ydOalU18I-8" value="组装数据并获取rejectCode，写入t_process_reject_reason" style="whiteSpace=wrap;html=1;fillColor=#F2CC8F;strokeColor=#E07A5F;fontColor=#393C56;strokeWidth=2;" vertex="1" parent="1">
          <mxGeometry x="182.5" y="420" width="151" height="63" as="geometry" />
        </mxCell>
        <mxCell id="ISMIpiO5yM2ydOalU18I-13" style="edgeStyle=orthogonalEdgeStyle;rounded=0;orthogonalLoop=1;jettySize=auto;html=1;exitX=1;exitY=0.5;exitDx=0;exitDy=0;strokeColor=#E07A5F;fontColor=#393C56;fillColor=#F2CC8F;" edge="1" parent="1" source="ISMIpiO5yM2ydOalU18I-11" target="ISMIpiO5yM2ydOalU18I-5">
          <mxGeometry relative="1" as="geometry" />
        </mxCell>
        <mxCell id="ISMIpiO5yM2ydOalU18I-14" value="Y" style="edgeLabel;html=1;align=center;verticalAlign=middle;resizable=0;points=[];strokeColor=#E07A5F;fontColor=#393C56;fillColor=#F2CC8F;" vertex="1" connectable="0" parent="ISMIpiO5yM2ydOalU18I-13">
          <mxGeometry x="-0.5005" relative="1" as="geometry">
            <mxPoint y="1" as="offset" />
          </mxGeometry>
        </mxCell>
        <mxCell id="ISMIpiO5yM2ydOalU18I-16" value="" style="edgeStyle=orthogonalEdgeStyle;rounded=0;orthogonalLoop=1;jettySize=auto;html=1;strokeColor=#E07A5F;fontColor=#393C56;fillColor=#F2CC8F;" edge="1" parent="1" source="ISMIpiO5yM2ydOalU18I-11" target="ISMIpiO5yM2ydOalU18I-15">
          <mxGeometry relative="1" as="geometry" />
        </mxCell>
        <mxCell id="ISMIpiO5yM2ydOalU18I-17" value="N" style="edgeLabel;html=1;align=center;verticalAlign=middle;resizable=0;points=[];strokeColor=#E07A5F;fontColor=#393C56;fillColor=#F2CC8F;" vertex="1" connectable="0" parent="ISMIpiO5yM2ydOalU18I-16">
          <mxGeometry x="-0.3" y="-1" relative="1" as="geometry">
            <mxPoint y="1" as="offset" />
          </mxGeometry>
        </mxCell>
        <mxCell id="ISMIpiO5yM2ydOalU18I-11" value="rejectCode为空？" style="rhombus;whiteSpace=wrap;html=1;fillColor=#F2CC8F;strokeColor=#E07A5F;fontColor=#393C56;strokeWidth=2;" vertex="1" parent="1">
          <mxGeometry x="218" y="554.5" width="80" height="80" as="geometry" />
        </mxCell>
        <mxCell id="ISMIpiO5yM2ydOalU18I-19" value="" style="edgeStyle=orthogonalEdgeStyle;rounded=0;orthogonalLoop=1;jettySize=auto;html=1;strokeColor=#E07A5F;fontColor=#393C56;fillColor=#F2CC8F;" edge="1" parent="1" source="ISMIpiO5yM2ydOalU18I-15" target="ISMIpiO5yM2ydOalU18I-18">
          <mxGeometry relative="1" as="geometry" />
        </mxCell>
        <mxCell id="ISMIpiO5yM2ydOalU18I-15" value="根据rejectCode和caseType获取执行策略" style="whiteSpace=wrap;html=1;fillColor=#F2CC8F;strokeColor=#E07A5F;fontColor=#393C56;strokeWidth=2;" vertex="1" parent="1">
          <mxGeometry x="198" y="724.5" width="120" height="60" as="geometry" />
        </mxCell>
        <mxCell id="ISMIpiO5yM2ydOalU18I-20" style="edgeStyle=orthogonalEdgeStyle;rounded=0;orthogonalLoop=1;jettySize=auto;html=1;exitX=1;exitY=0.5;exitDx=0;exitDy=0;strokeColor=#E07A5F;fontColor=#393C56;fillColor=#F2CC8F;" edge="1" parent="1" source="ISMIpiO5yM2ydOalU18I-18" target="ISMIpiO5yM2ydOalU18I-5">
          <mxGeometry relative="1" as="geometry" />
        </mxCell>
        <mxCell id="ISMIpiO5yM2ydOalU18I-21" value="Y" style="edgeLabel;html=1;align=center;verticalAlign=middle;resizable=0;points=[];strokeColor=#E07A5F;fontColor=#393C56;fillColor=#F2CC8F;" vertex="1" connectable="0" parent="ISMIpiO5yM2ydOalU18I-20">
          <mxGeometry x="-0.6919" y="1" relative="1" as="geometry">
            <mxPoint y="1" as="offset" />
          </mxGeometry>
        </mxCell>
        <mxCell id="ISMIpiO5yM2ydOalU18I-23" style="edgeStyle=orthogonalEdgeStyle;rounded=0;orthogonalLoop=1;jettySize=auto;html=1;exitX=0.5;exitY=1;exitDx=0;exitDy=0;strokeColor=#E07A5F;fontColor=#393C56;fillColor=#F2CC8F;" edge="1" parent="1" source="ISMIpiO5yM2ydOalU18I-18" target="ISMIpiO5yM2ydOalU18I-22">
          <mxGeometry relative="1" as="geometry" />
        </mxCell>
        <mxCell id="ISMIpiO5yM2ydOalU18I-18" value="执行策略为空" style="rhombus;whiteSpace=wrap;html=1;fillColor=#F2CC8F;strokeColor=#E07A5F;fontColor=#393C56;strokeWidth=2;" vertex="1" parent="1">
          <mxGeometry x="218" y="854.5" width="80" height="80" as="geometry" />
        </mxCell>
        <mxCell id="ISMIpiO5yM2ydOalU18I-22" value="" style="verticalLabelPosition=bottom;verticalAlign=top;html=1;shape=process;whiteSpace=wrap;rounded=1;size=0.14;arcSize=6;strokeColor=#E07A5F;fontColor=#393C56;fillColor=#F2CC8F;" vertex="1" parent="1">
          <mxGeometry x="208" y="1023" width="100" height="60" as="geometry" />
        </mxCell>
        <mxCell id="ISMIpiO5yM2ydOalU18I-27" value="执行策略对应的业务处理" style="text;html=1;align=center;verticalAlign=middle;whiteSpace=wrap;rounded=0;fontColor=#393C56;" vertex="1" parent="1">
          <mxGeometry x="228" y="1038" width="60" height="30" as="geometry" />
        </mxCell>
        <mxCell id="ISMIpiO5yM2ydOalU18I-31" value="" style="edgeStyle=orthogonalEdgeStyle;rounded=0;orthogonalLoop=1;jettySize=auto;html=1;strokeColor=#E07A5F;fontColor=#393C56;fillColor=#F2CC8F;" edge="1" parent="1" source="ISMIpiO5yM2ydOalU18I-28" target="ISMIpiO5yM2ydOalU18I-30">
          <mxGeometry relative="1" as="geometry" />
        </mxCell>
        <mxCell id="ISMIpiO5yM2ydOalU18I-28" value="rejectCode=CLS1策略" style="strokeWidth=2;html=1;shape=mxgraph.flowchart.start_2;whiteSpace=wrap;strokeColor=#E07A5F;fontColor=#393C56;fillColor=#F2CC8F;" vertex="1" parent="1">
          <mxGeometry x="857" y="56" width="100" height="100" as="geometry" />
        </mxCell>
        <mxCell id="ISMIpiO5yM2ydOalU18I-29" value="com.zatech.bank.ekyc.provider.service.inner.strategy.auditreject.&lt;div&gt;Cls1RejectCommonStrategyImpl#doBusiness&lt;/div&gt;" style="text;html=1;align=center;verticalAlign=middle;whiteSpace=wrap;rounded=0;fontColor=#393C56;" vertex="1" parent="1">
          <mxGeometry x="711.5" y="-58" width="391" height="74" as="geometry" />
        </mxCell>
        <mxCell id="ISMIpiO5yM2ydOalU18I-33" value="" style="edgeStyle=orthogonalEdgeStyle;rounded=0;orthogonalLoop=1;jettySize=auto;html=1;strokeColor=#E07A5F;fontColor=#393C56;fillColor=#F2CC8F;" edge="1" parent="1" source="ISMIpiO5yM2ydOalU18I-30" target="ISMIpiO5yM2ydOalU18I-32">
          <mxGeometry relative="1" as="geometry" />
        </mxCell>
        <mxCell id="ISMIpiO5yM2ydOalU18I-30" value="根据userId查询t_customer_account" style="whiteSpace=wrap;html=1;fillColor=#F2CC8F;strokeColor=#E07A5F;fontColor=#393C56;strokeWidth=2;" vertex="1" parent="1">
          <mxGeometry x="847" y="256" width="120" height="60" as="geometry" />
        </mxCell>
        <mxCell id="ISMIpiO5yM2ydOalU18I-35" style="edgeStyle=orthogonalEdgeStyle;rounded=0;orthogonalLoop=1;jettySize=auto;html=1;exitX=1;exitY=0.5;exitDx=0;exitDy=0;strokeColor=#E07A5F;fontColor=#393C56;fillColor=#F2CC8F;" edge="1" parent="1" source="ISMIpiO5yM2ydOalU18I-32" target="ISMIpiO5yM2ydOalU18I-34">
          <mxGeometry relative="1" as="geometry" />
        </mxCell>
        <mxCell id="ISMIpiO5yM2ydOalU18I-36" value="Y" style="edgeLabel;html=1;align=center;verticalAlign=middle;resizable=0;points=[];strokeColor=#E07A5F;fontColor=#393C56;fillColor=#F2CC8F;" vertex="1" connectable="0" parent="ISMIpiO5yM2ydOalU18I-35">
          <mxGeometry x="-0.2824" y="-1" relative="1" as="geometry">
            <mxPoint as="offset" />
          </mxGeometry>
        </mxCell>
        <mxCell id="ISMIpiO5yM2ydOalU18I-38" value="" style="edgeStyle=orthogonalEdgeStyle;rounded=0;orthogonalLoop=1;jettySize=auto;html=1;strokeColor=#E07A5F;fontColor=#393C56;fillColor=#F2CC8F;" edge="1" parent="1" source="ISMIpiO5yM2ydOalU18I-32" target="ISMIpiO5yM2ydOalU18I-37">
          <mxGeometry relative="1" as="geometry" />
        </mxCell>
        <mxCell id="ISMIpiO5yM2ydOalU18I-39" value="N" style="edgeLabel;html=1;align=center;verticalAlign=middle;resizable=0;points=[];strokeColor=#E07A5F;fontColor=#393C56;fillColor=#F2CC8F;" vertex="1" connectable="0" parent="ISMIpiO5yM2ydOalU18I-38">
          <mxGeometry x="0.0222" y="1" relative="1" as="geometry">
            <mxPoint as="offset" />
          </mxGeometry>
        </mxCell>
        <mxCell id="ISMIpiO5yM2ydOalU18I-32" value="查询记录为空" style="rhombus;whiteSpace=wrap;html=1;fillColor=#F2CC8F;strokeColor=#E07A5F;fontColor=#393C56;strokeWidth=2;" vertex="1" parent="1">
          <mxGeometry x="867" y="386" width="80" height="80" as="geometry" />
        </mxCell>
        <mxCell id="ISMIpiO5yM2ydOalU18I-34" value="结束" style="strokeWidth=2;html=1;shape=mxgraph.flowchart.terminator;whiteSpace=wrap;strokeColor=#E07A5F;fontColor=#393C56;fillColor=#F2CC8F;" vertex="1" parent="1">
          <mxGeometry x="1209" y="396" width="100" height="60" as="geometry" />
        </mxCell>
        <mxCell id="ISMIpiO5yM2ydOalU18I-41" value="" style="edgeStyle=orthogonalEdgeStyle;rounded=0;orthogonalLoop=1;jettySize=auto;html=1;strokeColor=#E07A5F;fontColor=#393C56;fillColor=#F2CC8F;" edge="1" parent="1" source="ISMIpiO5yM2ydOalU18I-37" target="ISMIpiO5yM2ydOalU18I-40">
          <mxGeometry relative="1" as="geometry" />
        </mxCell>
        <mxCell id="ISMIpiO5yM2ydOalU18I-37" value="根据userId，case_type=10，status!=4,status!=9查询t_ekyc_manual_approve" style="whiteSpace=wrap;html=1;fillColor=#F2CC8F;strokeColor=#E07A5F;fontColor=#393C56;strokeWidth=2;" vertex="1" parent="1">
          <mxGeometry x="833.5" y="564.5" width="147" height="70" as="geometry" />
        </mxCell>
        <mxCell id="ISMIpiO5yM2ydOalU18I-45" value="" style="edgeStyle=orthogonalEdgeStyle;rounded=0;orthogonalLoop=1;jettySize=auto;html=1;strokeColor=#E07A5F;fontColor=#393C56;fillColor=#F2CC8F;" edge="1" parent="1" source="ISMIpiO5yM2ydOalU18I-40" target="ISMIpiO5yM2ydOalU18I-44">
          <mxGeometry relative="1" as="geometry" />
        </mxCell>
        <mxCell id="ISMIpiO5yM2ydOalU18I-46" value="Y" style="edgeLabel;html=1;align=center;verticalAlign=middle;resizable=0;points=[];strokeColor=#E07A5F;fontColor=#393C56;fillColor=#F2CC8F;" vertex="1" connectable="0" parent="ISMIpiO5yM2ydOalU18I-45">
          <mxGeometry x="-0.2778" y="1" relative="1" as="geometry">
            <mxPoint y="1" as="offset" />
          </mxGeometry>
        </mxCell>
        <mxCell id="ISMIpiO5yM2ydOalU18I-40" value="查询记录为空" style="rhombus;whiteSpace=wrap;html=1;fillColor=#F2CC8F;strokeColor=#E07A5F;fontColor=#393C56;strokeWidth=2;" vertex="1" parent="1">
          <mxGeometry x="867" y="709.5" width="80" height="80" as="geometry" />
        </mxCell>
        <mxCell id="ISMIpiO5yM2ydOalU18I-42" style="edgeStyle=orthogonalEdgeStyle;rounded=0;orthogonalLoop=1;jettySize=auto;html=1;exitX=1;exitY=0.5;exitDx=0;exitDy=0;entryX=0.5;entryY=1;entryDx=0;entryDy=0;entryPerimeter=0;strokeColor=#E07A5F;fontColor=#393C56;fillColor=#F2CC8F;" edge="1" parent="1" source="ISMIpiO5yM2ydOalU18I-40" target="ISMIpiO5yM2ydOalU18I-34">
          <mxGeometry relative="1" as="geometry" />
        </mxCell>
        <mxCell id="ISMIpiO5yM2ydOalU18I-43" value="N" style="edgeLabel;html=1;align=center;verticalAlign=middle;resizable=0;points=[];strokeColor=#E07A5F;fontColor=#393C56;fillColor=#F2CC8F;" vertex="1" connectable="0" parent="ISMIpiO5yM2ydOalU18I-42">
          <mxGeometry x="-0.4748" relative="1" as="geometry">
            <mxPoint y="1" as="offset" />
          </mxGeometry>
        </mxCell>
        <mxCell id="ISMIpiO5yM2ydOalU18I-48" value="" style="edgeStyle=orthogonalEdgeStyle;rounded=0;orthogonalLoop=1;jettySize=auto;html=1;strokeColor=#E07A5F;fontColor=#393C56;fillColor=#F2CC8F;" edge="1" parent="1" source="ISMIpiO5yM2ydOalU18I-44" target="ISMIpiO5yM2ydOalU18I-47">
          <mxGeometry relative="1" as="geometry" />
        </mxCell>
        <mxCell id="ISMIpiO5yM2ydOalU18I-44" value="往t_ekyc_manual_approve写入一条记录，caseType=10,status=1" style="whiteSpace=wrap;html=1;fillColor=#F2CC8F;strokeColor=#E07A5F;fontColor=#393C56;strokeWidth=2;" vertex="1" parent="1">
          <mxGeometry x="837.5" y="884" width="139" height="67.5" as="geometry" />
        </mxCell>
        <mxCell id="ISMIpiO5yM2ydOalU18I-50" value="" style="edgeStyle=orthogonalEdgeStyle;rounded=0;orthogonalLoop=1;jettySize=auto;html=1;strokeColor=#E07A5F;fontColor=#393C56;fillColor=#F2CC8F;" edge="1" parent="1" source="ISMIpiO5yM2ydOalU18I-47" target="ISMIpiO5yM2ydOalU18I-49">
          <mxGeometry relative="1" as="geometry" />
        </mxCell>
        <mxCell id="ISMIpiO5yM2ydOalU18I-47" value="组装数据，往t_process_reject_reason写入一条记录" style="whiteSpace=wrap;html=1;fillColor=#F2CC8F;strokeColor=#E07A5F;fontColor=#393C56;strokeWidth=2;" vertex="1" parent="1">
          <mxGeometry x="835.5" y="1042" width="143" height="65.75" as="geometry" />
        </mxCell>
        <mxCell id="ISMIpiO5yM2ydOalU18I-57" style="edgeStyle=orthogonalEdgeStyle;rounded=0;orthogonalLoop=1;jettySize=auto;html=1;exitX=0.5;exitY=1;exitDx=0;exitDy=0;strokeColor=#E07A5F;fontColor=#393C56;fillColor=#F2CC8F;" edge="1" parent="1" source="ISMIpiO5yM2ydOalU18I-49" target="ISMIpiO5yM2ydOalU18I-56">
          <mxGeometry relative="1" as="geometry" />
        </mxCell>
        <mxCell id="ISMIpiO5yM2ydOalU18I-49" value="组装数据，往t_customer_info写入一条记录" style="whiteSpace=wrap;html=1;fillColor=#F2CC8F;strokeColor=#E07A5F;fontColor=#393C56;strokeWidth=2;" vertex="1" parent="1">
          <mxGeometry x="835.5" y="1187.75" width="143" height="65.75" as="geometry" />
        </mxCell>
        <mxCell id="ISMIpiO5yM2ydOalU18I-52" value="加入销户列表" style="text;html=1;align=center;verticalAlign=middle;whiteSpace=wrap;rounded=0;fontColor=#393C56;" vertex="1" parent="1">
          <mxGeometry x="1251" y="237" width="104" height="22" as="geometry" />
        </mxCell>
        <mxCell id="ISMIpiO5yM2ydOalU18I-60" value="" style="edgeStyle=orthogonalEdgeStyle;rounded=0;orthogonalLoop=1;jettySize=auto;html=1;strokeColor=#E07A5F;fontColor=#393C56;fillColor=#F2CC8F;" edge="1" parent="1" source="ISMIpiO5yM2ydOalU18I-56" target="ISMIpiO5yM2ydOalU18I-59">
          <mxGeometry relative="1" as="geometry" />
        </mxCell>
        <mxCell id="ISMIpiO5yM2ydOalU18I-56" value="发送邮件给OPS" style="rounded=0;whiteSpace=wrap;html=1;strokeColor=#E07A5F;fontColor=#393C56;fillColor=#F2CC8F;" vertex="1" parent="1">
          <mxGeometry x="847" y="1341" width="120" height="60" as="geometry" />
        </mxCell>
        <mxCell id="ISMIpiO5yM2ydOalU18I-58" value="P_cancellation_notification" style="text;html=1;align=center;verticalAlign=middle;whiteSpace=wrap;rounded=0;fontColor=#393C56;" vertex="1" parent="1">
          <mxGeometry x="682" y="1358" width="60" height="30" as="geometry" />
        </mxCell>
        <mxCell id="ISMIpiO5yM2ydOalU18I-59" value="调用核心接口设置客户C32状态" style="rounded=0;whiteSpace=wrap;html=1;strokeColor=#E07A5F;fontColor=#393C56;fillColor=#F2CC8F;" vertex="1" parent="1">
          <mxGeometry x="847" y="1481" width="120" height="60" as="geometry" />
        </mxCell>
        <mxCell id="ISMIpiO5yM2ydOalU18I-61" value="往t_core_req_record写入一条记录" style="strokeWidth=2;html=1;shape=mxgraph.flowchart.terminator;whiteSpace=wrap;strokeColor=#E07A5F;fontColor=#393C56;fillColor=#F2CC8F;" vertex="1" parent="1">
          <mxGeometry x="857" y="1627" width="100" height="60" as="geometry" />
        </mxCell>
        <mxCell id="ISMIpiO5yM2ydOalU18I-62" style="edgeStyle=orthogonalEdgeStyle;rounded=0;orthogonalLoop=1;jettySize=auto;html=1;exitX=0.5;exitY=1;exitDx=0;exitDy=0;entryX=0.5;entryY=0;entryDx=0;entryDy=0;entryPerimeter=0;strokeColor=#E07A5F;fontColor=#393C56;fillColor=#F2CC8F;" edge="1" parent="1" source="ISMIpiO5yM2ydOalU18I-59" target="ISMIpiO5yM2ydOalU18I-61">
          <mxGeometry relative="1" as="geometry" />
        </mxCell>
        <mxCell id="ISMIpiO5yM2ydOalU18I-66" value="" style="rounded=0;whiteSpace=wrap;html=1;strokeColor=#6c8ebf;fillColor=#dae8fc;" vertex="1" parent="1">
          <mxGeometry x="1572" y="212" width="669" height="1080" as="geometry" />
        </mxCell>
        <mxCell id="ISMIpiO5yM2ydOalU18I-67" value="" style="edgeStyle=orthogonalEdgeStyle;rounded=0;orthogonalLoop=1;jettySize=auto;html=1;strokeColor=#E07A5F;fontColor=#393C56;fillColor=#F2CC8F;" edge="1" parent="1" source="ISMIpiO5yM2ydOalU18I-68" target="ISMIpiO5yM2ydOalU18I-71">
          <mxGeometry relative="1" as="geometry" />
        </mxCell>
        <mxCell id="ISMIpiO5yM2ydOalU18I-68" value="rejectCode=CLS2策略" style="strokeWidth=2;html=1;shape=mxgraph.flowchart.start_2;whiteSpace=wrap;strokeColor=#E07A5F;fontColor=#393C56;fillColor=#F2CC8F;" vertex="1" parent="1">
          <mxGeometry x="1720" y="42" width="100" height="100" as="geometry" />
        </mxCell>
        <mxCell id="ISMIpiO5yM2ydOalU18I-69" value="com.zatech.bank.ekyc.provider.service.inner.strategy.auditreject.&lt;div&gt;Cls2RejectCommonStrategyImpl#doBusiness&lt;/div&gt;" style="text;html=1;align=center;verticalAlign=middle;whiteSpace=wrap;rounded=0;fontColor=#393C56;" vertex="1" parent="1">
          <mxGeometry x="1574.5" y="-72" width="391" height="74" as="geometry" />
        </mxCell>
        <mxCell id="ISMIpiO5yM2ydOalU18I-70" value="" style="edgeStyle=orthogonalEdgeStyle;rounded=0;orthogonalLoop=1;jettySize=auto;html=1;strokeColor=#E07A5F;fontColor=#393C56;fillColor=#F2CC8F;" edge="1" parent="1" source="ISMIpiO5yM2ydOalU18I-71" target="ISMIpiO5yM2ydOalU18I-76">
          <mxGeometry relative="1" as="geometry" />
        </mxCell>
        <mxCell id="ISMIpiO5yM2ydOalU18I-71" value="根据userId查询t_customer_account" style="whiteSpace=wrap;html=1;fillColor=#F2CC8F;strokeColor=#E07A5F;fontColor=#393C56;strokeWidth=2;" vertex="1" parent="1">
          <mxGeometry x="1710" y="242" width="120" height="60" as="geometry" />
        </mxCell>
        <mxCell id="ISMIpiO5yM2ydOalU18I-72" style="edgeStyle=orthogonalEdgeStyle;rounded=0;orthogonalLoop=1;jettySize=auto;html=1;exitX=1;exitY=0.5;exitDx=0;exitDy=0;strokeColor=#E07A5F;fontColor=#393C56;fillColor=#F2CC8F;" edge="1" parent="1" source="ISMIpiO5yM2ydOalU18I-76" target="ISMIpiO5yM2ydOalU18I-77">
          <mxGeometry relative="1" as="geometry" />
        </mxCell>
        <mxCell id="ISMIpiO5yM2ydOalU18I-73" value="Y" style="edgeLabel;html=1;align=center;verticalAlign=middle;resizable=0;points=[];strokeColor=#E07A5F;fontColor=#393C56;fillColor=#F2CC8F;" vertex="1" connectable="0" parent="ISMIpiO5yM2ydOalU18I-72">
          <mxGeometry x="-0.2824" y="-1" relative="1" as="geometry">
            <mxPoint as="offset" />
          </mxGeometry>
        </mxCell>
        <mxCell id="ISMIpiO5yM2ydOalU18I-74" value="" style="edgeStyle=orthogonalEdgeStyle;rounded=0;orthogonalLoop=1;jettySize=auto;html=1;strokeColor=#E07A5F;fontColor=#393C56;fillColor=#F2CC8F;" edge="1" parent="1" source="ISMIpiO5yM2ydOalU18I-76" target="ISMIpiO5yM2ydOalU18I-79">
          <mxGeometry relative="1" as="geometry" />
        </mxCell>
        <mxCell id="ISMIpiO5yM2ydOalU18I-75" value="N" style="edgeLabel;html=1;align=center;verticalAlign=middle;resizable=0;points=[];strokeColor=#E07A5F;fontColor=#393C56;fillColor=#F2CC8F;" vertex="1" connectable="0" parent="ISMIpiO5yM2ydOalU18I-74">
          <mxGeometry x="0.0222" y="1" relative="1" as="geometry">
            <mxPoint as="offset" />
          </mxGeometry>
        </mxCell>
        <mxCell id="ISMIpiO5yM2ydOalU18I-76" value="查询记录为空" style="rhombus;whiteSpace=wrap;html=1;fillColor=#F2CC8F;strokeColor=#E07A5F;fontColor=#393C56;strokeWidth=2;" vertex="1" parent="1">
          <mxGeometry x="1730" y="372" width="80" height="80" as="geometry" />
        </mxCell>
        <mxCell id="ISMIpiO5yM2ydOalU18I-77" value="结束" style="strokeWidth=2;html=1;shape=mxgraph.flowchart.terminator;whiteSpace=wrap;strokeColor=#E07A5F;fontColor=#393C56;fillColor=#F2CC8F;" vertex="1" parent="1">
          <mxGeometry x="2072" y="382" width="100" height="60" as="geometry" />
        </mxCell>
        <mxCell id="ISMIpiO5yM2ydOalU18I-78" value="" style="edgeStyle=orthogonalEdgeStyle;rounded=0;orthogonalLoop=1;jettySize=auto;html=1;strokeColor=#E07A5F;fontColor=#393C56;fillColor=#F2CC8F;" edge="1" parent="1" source="ISMIpiO5yM2ydOalU18I-79" target="ISMIpiO5yM2ydOalU18I-82">
          <mxGeometry relative="1" as="geometry" />
        </mxCell>
        <mxCell id="ISMIpiO5yM2ydOalU18I-79" value="根据userId，case_type=10，status!=4,status!=9查询t_ekyc_manual_approve" style="whiteSpace=wrap;html=1;fillColor=#F2CC8F;strokeColor=#E07A5F;fontColor=#393C56;strokeWidth=2;" vertex="1" parent="1">
          <mxGeometry x="1696.5" y="550.5" width="147" height="70" as="geometry" />
        </mxCell>
        <mxCell id="ISMIpiO5yM2ydOalU18I-80" value="" style="edgeStyle=orthogonalEdgeStyle;rounded=0;orthogonalLoop=1;jettySize=auto;html=1;strokeColor=#E07A5F;fontColor=#393C56;fillColor=#F2CC8F;" edge="1" parent="1" source="ISMIpiO5yM2ydOalU18I-82" target="ISMIpiO5yM2ydOalU18I-86">
          <mxGeometry relative="1" as="geometry" />
        </mxCell>
        <mxCell id="ISMIpiO5yM2ydOalU18I-81" value="Y" style="edgeLabel;html=1;align=center;verticalAlign=middle;resizable=0;points=[];strokeColor=#E07A5F;fontColor=#393C56;fillColor=#F2CC8F;" vertex="1" connectable="0" parent="ISMIpiO5yM2ydOalU18I-80">
          <mxGeometry x="-0.2778" y="1" relative="1" as="geometry">
            <mxPoint y="1" as="offset" />
          </mxGeometry>
        </mxCell>
        <mxCell id="ISMIpiO5yM2ydOalU18I-82" value="查询记录为空" style="rhombus;whiteSpace=wrap;html=1;fillColor=#F2CC8F;strokeColor=#E07A5F;fontColor=#393C56;strokeWidth=2;" vertex="1" parent="1">
          <mxGeometry x="1730" y="695.5" width="80" height="80" as="geometry" />
        </mxCell>
        <mxCell id="ISMIpiO5yM2ydOalU18I-83" style="edgeStyle=orthogonalEdgeStyle;rounded=0;orthogonalLoop=1;jettySize=auto;html=1;exitX=1;exitY=0.5;exitDx=0;exitDy=0;entryX=0.5;entryY=1;entryDx=0;entryDy=0;entryPerimeter=0;strokeColor=#E07A5F;fontColor=#393C56;fillColor=#F2CC8F;" edge="1" parent="1" source="ISMIpiO5yM2ydOalU18I-82" target="ISMIpiO5yM2ydOalU18I-77">
          <mxGeometry relative="1" as="geometry" />
        </mxCell>
        <mxCell id="ISMIpiO5yM2ydOalU18I-84" value="N" style="edgeLabel;html=1;align=center;verticalAlign=middle;resizable=0;points=[];strokeColor=#E07A5F;fontColor=#393C56;fillColor=#F2CC8F;" vertex="1" connectable="0" parent="ISMIpiO5yM2ydOalU18I-83">
          <mxGeometry x="-0.4748" relative="1" as="geometry">
            <mxPoint y="1" as="offset" />
          </mxGeometry>
        </mxCell>
        <mxCell id="ISMIpiO5yM2ydOalU18I-85" value="" style="edgeStyle=orthogonalEdgeStyle;rounded=0;orthogonalLoop=1;jettySize=auto;html=1;strokeColor=#E07A5F;fontColor=#393C56;fillColor=#F2CC8F;" edge="1" parent="1" source="ISMIpiO5yM2ydOalU18I-86" target="ISMIpiO5yM2ydOalU18I-88">
          <mxGeometry relative="1" as="geometry" />
        </mxCell>
        <mxCell id="ISMIpiO5yM2ydOalU18I-86" value="往t_ekyc_manual_approve写入一条记录，caseType=10,status=1" style="whiteSpace=wrap;html=1;fillColor=#F2CC8F;strokeColor=#E07A5F;fontColor=#393C56;strokeWidth=2;" vertex="1" parent="1">
          <mxGeometry x="1700.5" y="870" width="139" height="67.5" as="geometry" />
        </mxCell>
        <mxCell id="ISMIpiO5yM2ydOalU18I-87" value="" style="edgeStyle=orthogonalEdgeStyle;rounded=0;orthogonalLoop=1;jettySize=auto;html=1;strokeColor=#E07A5F;fontColor=#393C56;fillColor=#F2CC8F;" edge="1" parent="1" source="ISMIpiO5yM2ydOalU18I-88" target="ISMIpiO5yM2ydOalU18I-90">
          <mxGeometry relative="1" as="geometry" />
        </mxCell>
        <mxCell id="ISMIpiO5yM2ydOalU18I-88" value="组装数据，往t_process_reject_reason写入一条记录" style="whiteSpace=wrap;html=1;fillColor=#F2CC8F;strokeColor=#E07A5F;fontColor=#393C56;strokeWidth=2;" vertex="1" parent="1">
          <mxGeometry x="1698.5" y="1028" width="143" height="65.75" as="geometry" />
        </mxCell>
        <mxCell id="ISMIpiO5yM2ydOalU18I-89" style="edgeStyle=orthogonalEdgeStyle;rounded=0;orthogonalLoop=1;jettySize=auto;html=1;exitX=0.5;exitY=1;exitDx=0;exitDy=0;strokeColor=#E07A5F;fontColor=#393C56;fillColor=#F2CC8F;" edge="1" parent="1" source="ISMIpiO5yM2ydOalU18I-90" target="ISMIpiO5yM2ydOalU18I-93">
          <mxGeometry relative="1" as="geometry" />
        </mxCell>
        <mxCell id="ISMIpiO5yM2ydOalU18I-90" value="组装数据，往t_customer_info写入一条记录" style="whiteSpace=wrap;html=1;fillColor=#F2CC8F;strokeColor=#E07A5F;fontColor=#393C56;strokeWidth=2;" vertex="1" parent="1">
          <mxGeometry x="1698.5" y="1173.75" width="143" height="65.75" as="geometry" />
        </mxCell>
        <mxCell id="ISMIpiO5yM2ydOalU18I-91" value="加入销户列表" style="text;html=1;align=center;verticalAlign=middle;whiteSpace=wrap;rounded=0;fontColor=#393C56;" vertex="1" parent="1">
          <mxGeometry x="2114" y="223" width="104" height="22" as="geometry" />
        </mxCell>
        <mxCell id="ISMIpiO5yM2ydOalU18I-92" value="" style="edgeStyle=orthogonalEdgeStyle;rounded=0;orthogonalLoop=1;jettySize=auto;html=1;strokeColor=#E07A5F;fontColor=#393C56;fillColor=#F2CC8F;" edge="1" parent="1" source="ISMIpiO5yM2ydOalU18I-93" target="ISMIpiO5yM2ydOalU18I-95">
          <mxGeometry relative="1" as="geometry" />
        </mxCell>
        <mxCell id="ISMIpiO5yM2ydOalU18I-93" value="发送邮件给OPS" style="rounded=0;whiteSpace=wrap;html=1;strokeColor=#E07A5F;fontColor=#393C56;fillColor=#F2CC8F;" vertex="1" parent="1">
          <mxGeometry x="1710" y="1327" width="120" height="60" as="geometry" />
        </mxCell>
        <mxCell id="ISMIpiO5yM2ydOalU18I-94" value="P_cancellation_notification" style="text;html=1;align=center;verticalAlign=middle;whiteSpace=wrap;rounded=0;fontColor=#393C56;" vertex="1" parent="1">
          <mxGeometry x="1545" y="1344" width="60" height="30" as="geometry" />
        </mxCell>
        <mxCell id="ISMIpiO5yM2ydOalU18I-95" value="上报blackCode=A01" style="rounded=0;whiteSpace=wrap;html=1;strokeColor=#E07A5F;fontColor=#393C56;fillColor=#F2CC8F;" vertex="1" parent="1">
          <mxGeometry x="1710" y="1467" width="120" height="60" as="geometry" />
        </mxCell>
        <mxCell id="ISMIpiO5yM2ydOalU18I-96" value="往t_core_req_record写入一条记录" style="strokeWidth=2;html=1;shape=mxgraph.flowchart.terminator;whiteSpace=wrap;strokeColor=#E07A5F;fontColor=#393C56;fillColor=#F2CC8F;" vertex="1" parent="1">
          <mxGeometry x="1720" y="1613" width="100" height="60" as="geometry" />
        </mxCell>
        <mxCell id="ISMIpiO5yM2ydOalU18I-97" style="edgeStyle=orthogonalEdgeStyle;rounded=0;orthogonalLoop=1;jettySize=auto;html=1;exitX=0.5;exitY=1;exitDx=0;exitDy=0;entryX=0.5;entryY=0;entryDx=0;entryDy=0;entryPerimeter=0;strokeColor=#E07A5F;fontColor=#393C56;fillColor=#F2CC8F;" edge="1" parent="1" source="ISMIpiO5yM2ydOalU18I-95" target="ISMIpiO5yM2ydOalU18I-96">
          <mxGeometry relative="1" as="geometry" />
        </mxCell>
        <mxCell id="ISMIpiO5yM2ydOalU18I-98" value="设置账户状态整户冻结" style="text;html=1;align=center;verticalAlign=middle;whiteSpace=wrap;rounded=0;fontColor=#393C56;" vertex="1" parent="1">
          <mxGeometry x="1503" y="1477" width="125" height="40" as="geometry" />
        </mxCell>
        <mxCell id="ISMIpiO5yM2ydOalU18I-99" value="rejectCode=OTH1策略" style="strokeWidth=2;html=1;shape=mxgraph.flowchart.start_2;whiteSpace=wrap;strokeColor=#E07A5F;fontColor=#393C56;fillColor=#F2CC8F;" vertex="1" parent="1">
          <mxGeometry x="2621" y="56" width="100" height="100" as="geometry" />
        </mxCell>
        <mxCell id="ISMIpiO5yM2ydOalU18I-100" value="com.zatech.bank.ekyc.provider.service.inner.strategy.auditreject.&lt;div&gt;Oth1RejectCommonStrategyImpl#doBusiness&lt;/div&gt;" style="text;html=1;align=center;verticalAlign=middle;whiteSpace=wrap;rounded=0;fontColor=#393C56;" vertex="1" parent="1">
          <mxGeometry x="2396" y="-66" width="550" height="70" as="geometry" />
        </mxCell>
        <mxCell id="ISMIpiO5yM2ydOalU18I-101" value="结束" style="strokeWidth=2;html=1;shape=mxgraph.flowchart.terminator;whiteSpace=wrap;strokeColor=#E07A5F;fontColor=#393C56;fillColor=#F2CC8F;" vertex="1" parent="1">
          <mxGeometry x="2621" y="249" width="100" height="60" as="geometry" />
        </mxCell>
        <mxCell id="ISMIpiO5yM2ydOalU18I-102" style="edgeStyle=orthogonalEdgeStyle;rounded=0;orthogonalLoop=1;jettySize=auto;html=1;entryX=0.5;entryY=0;entryDx=0;entryDy=0;entryPerimeter=0;strokeColor=#E07A5F;fontColor=#393C56;fillColor=#F2CC8F;" edge="1" parent="1" source="ISMIpiO5yM2ydOalU18I-99" target="ISMIpiO5yM2ydOalU18I-101">
          <mxGeometry relative="1" as="geometry" />
        </mxCell>
        <mxCell id="ISMIpiO5yM2ydOalU18I-103" value="无需做额外处理" style="text;html=1;align=center;verticalAlign=middle;whiteSpace=wrap;rounded=0;fontColor=#393C56;" vertex="1" parent="1">
          <mxGeometry x="2474" y="197" width="150" height="29" as="geometry" />
        </mxCell>
        <mxCell id="ISMIpiO5yM2ydOalU18I-104" value="com.zatech.bank.ekyc.provider.service.inner.strategy.auditreject.&lt;div&gt;ThreePtRejectCommonStrategyImpl#doBusiness&lt;/div&gt;" style="text;html=1;align=center;verticalAlign=middle;whiteSpace=wrap;rounded=0;fontColor=#393C56;" vertex="1" parent="1">
          <mxGeometry x="3179.5" y="-61.5" width="401" height="53" as="geometry" />
        </mxCell>
        <mxCell id="ISMIpiO5yM2ydOalU18I-107" value="" style="edgeStyle=orthogonalEdgeStyle;rounded=0;orthogonalLoop=1;jettySize=auto;html=1;strokeColor=#E07A5F;fontColor=#393C56;fillColor=#F2CC8F;" edge="1" parent="1" source="ISMIpiO5yM2ydOalU18I-105" target="ISMIpiO5yM2ydOalU18I-106">
          <mxGeometry relative="1" as="geometry" />
        </mxCell>
        <mxCell id="ISMIpiO5yM2ydOalU18I-105" value="rejectCode=3PT策略" style="strokeWidth=2;html=1;shape=mxgraph.flowchart.start_2;whiteSpace=wrap;strokeColor=#E07A5F;fontColor=#393C56;fillColor=#F2CC8F;" vertex="1" parent="1">
          <mxGeometry x="3330" y="42" width="100" height="100" as="geometry" />
        </mxCell>
        <mxCell id="ISMIpiO5yM2ydOalU18I-109" value="" style="edgeStyle=orthogonalEdgeStyle;rounded=0;orthogonalLoop=1;jettySize=auto;html=1;strokeColor=#E07A5F;fontColor=#393C56;fillColor=#F2CC8F;" edge="1" parent="1" source="ISMIpiO5yM2ydOalU18I-106" target="ISMIpiO5yM2ydOalU18I-108">
          <mxGeometry relative="1" as="geometry" />
        </mxCell>
        <mxCell id="ISMIpiO5yM2ydOalU18I-106" value="根据sysSeq查询t_process_reject_reason" style="whiteSpace=wrap;html=1;fillColor=#F2CC8F;strokeColor=#E07A5F;fontColor=#393C56;strokeWidth=2;" vertex="1" parent="1">
          <mxGeometry x="3299.5" y="249" width="161" height="69" as="geometry" />
        </mxCell>
        <mxCell id="ISMIpiO5yM2ydOalU18I-111" style="edgeStyle=orthogonalEdgeStyle;rounded=0;orthogonalLoop=1;jettySize=auto;html=1;exitX=1;exitY=0.5;exitDx=0;exitDy=0;strokeColor=#E07A5F;fontColor=#393C56;fillColor=#F2CC8F;" edge="1" parent="1" source="ISMIpiO5yM2ydOalU18I-108" target="ISMIpiO5yM2ydOalU18I-110">
          <mxGeometry relative="1" as="geometry" />
        </mxCell>
        <mxCell id="ISMIpiO5yM2ydOalU18I-112" value="Y" style="edgeLabel;html=1;align=center;verticalAlign=middle;resizable=0;points=[];strokeColor=#E07A5F;fontColor=#393C56;fillColor=#F2CC8F;" vertex="1" connectable="0" parent="ISMIpiO5yM2ydOalU18I-111">
          <mxGeometry x="0.0847" y="4" relative="1" as="geometry">
            <mxPoint y="1" as="offset" />
          </mxGeometry>
        </mxCell>
        <mxCell id="ISMIpiO5yM2ydOalU18I-114" value="" style="edgeStyle=orthogonalEdgeStyle;rounded=0;orthogonalLoop=1;jettySize=auto;html=1;strokeColor=#E07A5F;fontColor=#393C56;fillColor=#F2CC8F;" edge="1" parent="1" source="ISMIpiO5yM2ydOalU18I-108" target="ISMIpiO5yM2ydOalU18I-113">
          <mxGeometry relative="1" as="geometry" />
        </mxCell>
        <mxCell id="ISMIpiO5yM2ydOalU18I-115" value="N" style="edgeLabel;html=1;align=center;verticalAlign=middle;resizable=0;points=[];strokeColor=#E07A5F;fontColor=#393C56;fillColor=#F2CC8F;" vertex="1" connectable="0" parent="ISMIpiO5yM2ydOalU18I-114">
          <mxGeometry x="-0.3222" y="1" relative="1" as="geometry">
            <mxPoint as="offset" />
          </mxGeometry>
        </mxCell>
        <mxCell id="ISMIpiO5yM2ydOalU18I-108" value="查询为空" style="rhombus;whiteSpace=wrap;html=1;fillColor=#F2CC8F;strokeColor=#E07A5F;fontColor=#393C56;strokeWidth=2;" vertex="1" parent="1">
          <mxGeometry x="3340" y="392.5" width="80" height="80" as="geometry" />
        </mxCell>
        <mxCell id="ISMIpiO5yM2ydOalU18I-110" value="结束" style="strokeWidth=2;html=1;shape=mxgraph.flowchart.terminator;whiteSpace=wrap;strokeColor=#E07A5F;fontColor=#393C56;fillColor=#F2CC8F;" vertex="1" parent="1">
          <mxGeometry x="3538" y="402.5" width="100" height="60" as="geometry" />
        </mxCell>
        <mxCell id="ISMIpiO5yM2ydOalU18I-117" value="" style="edgeStyle=orthogonalEdgeStyle;rounded=0;orthogonalLoop=1;jettySize=auto;html=1;strokeColor=#E07A5F;fontColor=#393C56;fillColor=#F2CC8F;" edge="1" parent="1" source="ISMIpiO5yM2ydOalU18I-113" target="ISMIpiO5yM2ydOalU18I-116">
          <mxGeometry relative="1" as="geometry" />
        </mxCell>
        <mxCell id="ISMIpiO5yM2ydOalU18I-113" value="根据userId查询t_customer_account" style="whiteSpace=wrap;html=1;fillColor=#F2CC8F;strokeColor=#E07A5F;fontColor=#393C56;strokeWidth=2;" vertex="1" parent="1">
          <mxGeometry x="3320" y="562.5" width="120" height="60" as="geometry" />
        </mxCell>
        <mxCell id="ISMIpiO5yM2ydOalU18I-118" style="edgeStyle=orthogonalEdgeStyle;rounded=0;orthogonalLoop=1;jettySize=auto;html=1;exitX=1;exitY=0.5;exitDx=0;exitDy=0;strokeColor=#E07A5F;fontColor=#393C56;fillColor=#F2CC8F;" edge="1" parent="1" source="ISMIpiO5yM2ydOalU18I-116" target="ISMIpiO5yM2ydOalU18I-110">
          <mxGeometry relative="1" as="geometry" />
        </mxCell>
        <mxCell id="ISMIpiO5yM2ydOalU18I-119" value="Y" style="edgeLabel;html=1;align=center;verticalAlign=middle;resizable=0;points=[];strokeColor=#E07A5F;fontColor=#393C56;fillColor=#F2CC8F;" vertex="1" connectable="0" parent="ISMIpiO5yM2ydOalU18I-118">
          <mxGeometry x="-0.5434" y="3" relative="1" as="geometry">
            <mxPoint y="1" as="offset" />
          </mxGeometry>
        </mxCell>
        <mxCell id="ISMIpiO5yM2ydOalU18I-121" value="" style="edgeStyle=orthogonalEdgeStyle;rounded=0;orthogonalLoop=1;jettySize=auto;html=1;strokeColor=#E07A5F;fontColor=#393C56;fillColor=#F2CC8F;" edge="1" parent="1" source="ISMIpiO5yM2ydOalU18I-116" target="ISMIpiO5yM2ydOalU18I-120">
          <mxGeometry relative="1" as="geometry" />
        </mxCell>
        <mxCell id="ISMIpiO5yM2ydOalU18I-152" value="N" style="edgeLabel;html=1;align=center;verticalAlign=middle;resizable=0;points=[];strokeColor=#E07A5F;fontColor=#393C56;fillColor=#F2CC8F;" vertex="1" connectable="0" parent="ISMIpiO5yM2ydOalU18I-121">
          <mxGeometry x="-0.0556" y="2" relative="1" as="geometry">
            <mxPoint y="1" as="offset" />
          </mxGeometry>
        </mxCell>
        <mxCell id="ISMIpiO5yM2ydOalU18I-116" value="查询为空" style="rhombus;whiteSpace=wrap;html=1;fillColor=#F2CC8F;strokeColor=#E07A5F;fontColor=#393C56;strokeWidth=2;" vertex="1" parent="1">
          <mxGeometry x="3340" y="692.5" width="80" height="80" as="geometry" />
        </mxCell>
        <mxCell id="ISMIpiO5yM2ydOalU18I-124" value="" style="edgeStyle=orthogonalEdgeStyle;rounded=0;orthogonalLoop=1;jettySize=auto;html=1;strokeColor=#E07A5F;fontColor=#393C56;fillColor=#F2CC8F;" edge="1" parent="1" source="ISMIpiO5yM2ydOalU18I-120" target="ISMIpiO5yM2ydOalU18I-123">
          <mxGeometry relative="1" as="geometry" />
        </mxCell>
        <mxCell id="ISMIpiO5yM2ydOalU18I-120" value="发送短信给客户" style="whiteSpace=wrap;html=1;fillColor=#F2CC8F;strokeColor=#E07A5F;fontColor=#393C56;strokeWidth=2;" vertex="1" parent="1">
          <mxGeometry x="3320" y="862.5" width="120" height="60" as="geometry" />
        </mxCell>
        <mxCell id="ISMIpiO5yM2ydOalU18I-122" value="P_7days_notification_qa_trigger" style="text;html=1;align=center;verticalAlign=middle;whiteSpace=wrap;rounded=0;fontColor=#393C56;" vertex="1" parent="1">
          <mxGeometry x="3088" y="870.88" width="207" height="47.25" as="geometry" />
        </mxCell>
        <mxCell id="ISMIpiO5yM2ydOalU18I-126" value="" style="edgeStyle=orthogonalEdgeStyle;rounded=0;orthogonalLoop=1;jettySize=auto;html=1;strokeColor=#E07A5F;fontColor=#393C56;fillColor=#F2CC8F;" edge="1" parent="1" source="ISMIpiO5yM2ydOalU18I-123" target="ISMIpiO5yM2ydOalU18I-125">
          <mxGeometry relative="1" as="geometry" />
        </mxCell>
        <mxCell id="ISMIpiO5yM2ydOalU18I-127" value="Y" style="edgeLabel;html=1;align=center;verticalAlign=middle;resizable=0;points=[];strokeColor=#E07A5F;fontColor=#393C56;fillColor=#F2CC8F;" vertex="1" connectable="0" parent="ISMIpiO5yM2ydOalU18I-126">
          <mxGeometry x="-0.2111" y="-2" relative="1" as="geometry">
            <mxPoint as="offset" />
          </mxGeometry>
        </mxCell>
        <mxCell id="ISMIpiO5yM2ydOalU18I-130" style="edgeStyle=orthogonalEdgeStyle;rounded=0;orthogonalLoop=1;jettySize=auto;html=1;exitX=1;exitY=0.5;exitDx=0;exitDy=0;entryX=1;entryY=0.5;entryDx=0;entryDy=0;strokeColor=#E07A5F;fontColor=#393C56;fillColor=#F2CC8F;" edge="1" parent="1" source="ISMIpiO5yM2ydOalU18I-123" target="ISMIpiO5yM2ydOalU18I-128">
          <mxGeometry relative="1" as="geometry" />
        </mxCell>
        <mxCell id="ISMIpiO5yM2ydOalU18I-131" value="N" style="edgeLabel;html=1;align=center;verticalAlign=middle;resizable=0;points=[];strokeColor=#E07A5F;fontColor=#393C56;fillColor=#F2CC8F;" vertex="1" connectable="0" parent="ISMIpiO5yM2ydOalU18I-130">
          <mxGeometry x="-0.1083" y="2" relative="1" as="geometry">
            <mxPoint as="offset" />
          </mxGeometry>
        </mxCell>
        <mxCell id="ISMIpiO5yM2ydOalU18I-123" value="发送失败" style="rhombus;whiteSpace=wrap;html=1;fillColor=#F2CC8F;strokeColor=#E07A5F;fontColor=#393C56;strokeWidth=2;" vertex="1" parent="1">
          <mxGeometry x="3340" y="992.5" width="80" height="80" as="geometry" />
        </mxCell>
        <mxCell id="ISMIpiO5yM2ydOalU18I-129" value="" style="edgeStyle=orthogonalEdgeStyle;rounded=0;orthogonalLoop=1;jettySize=auto;html=1;strokeColor=#E07A5F;fontColor=#393C56;fillColor=#F2CC8F;" edge="1" parent="1" source="ISMIpiO5yM2ydOalU18I-125" target="ISMIpiO5yM2ydOalU18I-128">
          <mxGeometry relative="1" as="geometry" />
        </mxCell>
        <mxCell id="ISMIpiO5yM2ydOalU18I-125" value="往表t_retry_entries写入一条记录后续重试" style="whiteSpace=wrap;html=1;fillColor=#F2CC8F;strokeColor=#E07A5F;fontColor=#393C56;strokeWidth=2;" vertex="1" parent="1">
          <mxGeometry x="3320" y="1162.5" width="120" height="60" as="geometry" />
        </mxCell>
        <mxCell id="ISMIpiO5yM2ydOalU18I-133" value="" style="edgeStyle=orthogonalEdgeStyle;rounded=0;orthogonalLoop=1;jettySize=auto;html=1;strokeColor=#E07A5F;fontColor=#393C56;fillColor=#F2CC8F;" edge="1" parent="1" source="ISMIpiO5yM2ydOalU18I-128" target="ISMIpiO5yM2ydOalU18I-132">
          <mxGeometry relative="1" as="geometry" />
        </mxCell>
        <mxCell id="ISMIpiO5yM2ydOalU18I-128" value="上报blackCode=A01" style="whiteSpace=wrap;html=1;fillColor=#F2CC8F;strokeColor=#E07A5F;fontColor=#393C56;strokeWidth=2;" vertex="1" parent="1">
          <mxGeometry x="3320" y="1302.5" width="120" height="60" as="geometry" />
        </mxCell>
        <mxCell id="ISMIpiO5yM2ydOalU18I-135" value="" style="edgeStyle=orthogonalEdgeStyle;rounded=0;orthogonalLoop=1;jettySize=auto;html=1;strokeColor=#E07A5F;fontColor=#393C56;fillColor=#F2CC8F;entryX=0.57;entryY=0.05;entryDx=0;entryDy=0;entryPerimeter=0;" edge="1" parent="1" source="ISMIpiO5yM2ydOalU18I-132" target="ISMIpiO5yM2ydOalU18I-171">
          <mxGeometry relative="1" as="geometry">
            <mxPoint x="3380" y="1602.5" as="targetPoint" />
          </mxGeometry>
        </mxCell>
        <mxCell id="ISMIpiO5yM2ydOalU18I-136" value="Y" style="edgeLabel;html=1;align=center;verticalAlign=middle;resizable=0;points=[];strokeColor=#E07A5F;fontColor=#393C56;fillColor=#F2CC8F;" vertex="1" connectable="0" parent="ISMIpiO5yM2ydOalU18I-135">
          <mxGeometry x="0.1222" y="-2" relative="1" as="geometry">
            <mxPoint y="1" as="offset" />
          </mxGeometry>
        </mxCell>
        <mxCell id="ISMIpiO5yM2ydOalU18I-137" style="edgeStyle=orthogonalEdgeStyle;rounded=0;orthogonalLoop=1;jettySize=auto;html=1;exitX=1;exitY=0.5;exitDx=0;exitDy=0;strokeColor=#E07A5F;fontColor=#393C56;fillColor=#F2CC8F;" edge="1" parent="1" source="ISMIpiO5yM2ydOalU18I-132" target="ISMIpiO5yM2ydOalU18I-110">
          <mxGeometry relative="1" as="geometry" />
        </mxCell>
        <mxCell id="ISMIpiO5yM2ydOalU18I-138" value="N" style="edgeLabel;html=1;align=center;verticalAlign=middle;resizable=0;points=[];strokeColor=#E07A5F;fontColor=#393C56;fillColor=#F2CC8F;" vertex="1" connectable="0" parent="ISMIpiO5yM2ydOalU18I-137">
          <mxGeometry x="-0.8387" y="-1" relative="1" as="geometry">
            <mxPoint y="1" as="offset" />
          </mxGeometry>
        </mxCell>
        <mxCell id="ISMIpiO5yM2ydOalU18I-132" value="上报失败" style="rhombus;whiteSpace=wrap;html=1;fillColor=#F2CC8F;strokeColor=#E07A5F;fontColor=#393C56;strokeWidth=2;" vertex="1" parent="1">
          <mxGeometry x="3340" y="1432.5" width="80" height="80" as="geometry" />
        </mxCell>
        <mxCell id="ISMIpiO5yM2ydOalU18I-140" value="执行实时动作：给客户发送邮件短信并将客户状态置为A01" style="text;html=1;align=center;verticalAlign=middle;whiteSpace=wrap;rounded=0;fontColor=#393C56;" vertex="1" parent="1">
          <mxGeometry x="3659" y="554.5" width="177" height="55.5" as="geometry" />
        </mxCell>
        <mxCell id="ISMIpiO5yM2ydOalU18I-144" value="" style="edgeStyle=orthogonalEdgeStyle;rounded=0;orthogonalLoop=1;jettySize=auto;html=1;strokeColor=#E07A5F;fontColor=#393C56;fillColor=#F2CC8F;" edge="1" parent="1" source="ISMIpiO5yM2ydOalU18I-141" target="ISMIpiO5yM2ydOalU18I-143">
          <mxGeometry relative="1" as="geometry" />
        </mxCell>
        <mxCell id="ISMIpiO5yM2ydOalU18I-141" value="rejectCode=WAT1策略" style="strokeWidth=2;html=1;shape=mxgraph.flowchart.start_2;whiteSpace=wrap;strokeColor=#E07A5F;fontColor=#393C56;fillColor=#F2CC8F;" vertex="1" parent="1">
          <mxGeometry x="4068" y="30" width="100" height="100" as="geometry" />
        </mxCell>
        <mxCell id="ISMIpiO5yM2ydOalU18I-142" value="com.zatech.bank.ekyc.provider.service.inner.strategy.auditreject.&lt;div&gt;Wat1RejectCommonStrategyImpl#doBusiness&lt;/div&gt;" style="text;html=1;align=center;verticalAlign=middle;whiteSpace=wrap;rounded=0;fontColor=#393C56;" vertex="1" parent="1">
          <mxGeometry x="3874" y="-66" width="488" height="46" as="geometry" />
        </mxCell>
        <mxCell id="ISMIpiO5yM2ydOalU18I-146" value="" style="edgeStyle=orthogonalEdgeStyle;rounded=0;orthogonalLoop=1;jettySize=auto;html=1;strokeColor=#E07A5F;fontColor=#393C56;fillColor=#F2CC8F;" edge="1" parent="1" source="ISMIpiO5yM2ydOalU18I-143" target="ISMIpiO5yM2ydOalU18I-145">
          <mxGeometry relative="1" as="geometry" />
        </mxCell>
        <mxCell id="ISMIpiO5yM2ydOalU18I-143" value="根据sysSeq查询t_process_reject_reason" style="whiteSpace=wrap;html=1;fillColor=#F2CC8F;strokeColor=#E07A5F;fontColor=#393C56;strokeWidth=2;" vertex="1" parent="1">
          <mxGeometry x="4036" y="230" width="164" height="69" as="geometry" />
        </mxCell>
        <mxCell id="ISMIpiO5yM2ydOalU18I-148" style="edgeStyle=orthogonalEdgeStyle;rounded=0;orthogonalLoop=1;jettySize=auto;html=1;exitX=1;exitY=0.5;exitDx=0;exitDy=0;strokeColor=#E07A5F;fontColor=#393C56;fillColor=#F2CC8F;" edge="1" parent="1" source="ISMIpiO5yM2ydOalU18I-145" target="ISMIpiO5yM2ydOalU18I-147">
          <mxGeometry relative="1" as="geometry" />
        </mxCell>
        <mxCell id="ISMIpiO5yM2ydOalU18I-149" value="Y" style="edgeLabel;html=1;align=center;verticalAlign=middle;resizable=0;points=[];strokeColor=#E07A5F;fontColor=#393C56;fillColor=#F2CC8F;" vertex="1" connectable="0" parent="ISMIpiO5yM2ydOalU18I-148">
          <mxGeometry x="-0.0943" y="4" relative="1" as="geometry">
            <mxPoint y="1" as="offset" />
          </mxGeometry>
        </mxCell>
        <mxCell id="ISMIpiO5yM2ydOalU18I-151" value="" style="edgeStyle=orthogonalEdgeStyle;rounded=0;orthogonalLoop=1;jettySize=auto;html=1;strokeColor=#E07A5F;fontColor=#393C56;fillColor=#F2CC8F;" edge="1" parent="1" source="ISMIpiO5yM2ydOalU18I-145" target="ISMIpiO5yM2ydOalU18I-150">
          <mxGeometry relative="1" as="geometry" />
        </mxCell>
        <mxCell id="ISMIpiO5yM2ydOalU18I-156" value="N" style="edgeLabel;html=1;align=center;verticalAlign=middle;resizable=0;points=[];strokeColor=#E07A5F;fontColor=#393C56;fillColor=#F2CC8F;" vertex="1" connectable="0" parent="ISMIpiO5yM2ydOalU18I-151">
          <mxGeometry x="-0.1" y="4" relative="1" as="geometry">
            <mxPoint as="offset" />
          </mxGeometry>
        </mxCell>
        <mxCell id="ISMIpiO5yM2ydOalU18I-145" value="查询为空" style="rhombus;whiteSpace=wrap;html=1;fillColor=#F2CC8F;strokeColor=#E07A5F;fontColor=#393C56;strokeWidth=2;" vertex="1" parent="1">
          <mxGeometry x="4078" y="373.5" width="80" height="80" as="geometry" />
        </mxCell>
        <mxCell id="ISMIpiO5yM2ydOalU18I-147" value="结束" style="strokeWidth=2;html=1;shape=mxgraph.flowchart.terminator;whiteSpace=wrap;strokeColor=#E07A5F;fontColor=#393C56;fillColor=#F2CC8F;" vertex="1" parent="1">
          <mxGeometry x="4343" y="384" width="100" height="60" as="geometry" />
        </mxCell>
        <mxCell id="ISMIpiO5yM2ydOalU18I-154" value="" style="edgeStyle=orthogonalEdgeStyle;rounded=0;orthogonalLoop=1;jettySize=auto;html=1;strokeColor=#E07A5F;fontColor=#393C56;fillColor=#F2CC8F;" edge="1" parent="1" source="ISMIpiO5yM2ydOalU18I-150" target="ISMIpiO5yM2ydOalU18I-153">
          <mxGeometry relative="1" as="geometry" />
        </mxCell>
        <mxCell id="ISMIpiO5yM2ydOalU18I-150" value="根据userId查询t_customer_account" style="whiteSpace=wrap;html=1;fillColor=#F2CC8F;strokeColor=#E07A5F;fontColor=#393C56;strokeWidth=2;" vertex="1" parent="1">
          <mxGeometry x="4058" y="543.5" width="120" height="60" as="geometry" />
        </mxCell>
        <mxCell id="ISMIpiO5yM2ydOalU18I-159" value="" style="edgeStyle=orthogonalEdgeStyle;rounded=0;orthogonalLoop=1;jettySize=auto;html=1;strokeColor=#E07A5F;fontColor=#393C56;fillColor=#F2CC8F;" edge="1" parent="1" source="ISMIpiO5yM2ydOalU18I-153" target="ISMIpiO5yM2ydOalU18I-158">
          <mxGeometry relative="1" as="geometry" />
        </mxCell>
        <mxCell id="ISMIpiO5yM2ydOalU18I-160" value="N" style="edgeLabel;html=1;align=center;verticalAlign=middle;resizable=0;points=[];strokeColor=#E07A5F;fontColor=#393C56;fillColor=#F2CC8F;" vertex="1" connectable="0" parent="ISMIpiO5yM2ydOalU18I-159">
          <mxGeometry x="0.0778" y="2" relative="1" as="geometry">
            <mxPoint as="offset" />
          </mxGeometry>
        </mxCell>
        <mxCell id="ISMIpiO5yM2ydOalU18I-153" value="查询为空" style="rhombus;whiteSpace=wrap;html=1;fillColor=#F2CC8F;strokeColor=#E07A5F;fontColor=#393C56;strokeWidth=2;" vertex="1" parent="1">
          <mxGeometry x="4078" y="673.5" width="80" height="80" as="geometry" />
        </mxCell>
        <mxCell id="ISMIpiO5yM2ydOalU18I-155" style="edgeStyle=orthogonalEdgeStyle;rounded=0;orthogonalLoop=1;jettySize=auto;html=1;exitX=1;exitY=0.5;exitDx=0;exitDy=0;entryX=0.5;entryY=1;entryDx=0;entryDy=0;entryPerimeter=0;strokeColor=#E07A5F;fontColor=#393C56;fillColor=#F2CC8F;" edge="1" parent="1" source="ISMIpiO5yM2ydOalU18I-153" target="ISMIpiO5yM2ydOalU18I-147">
          <mxGeometry relative="1" as="geometry" />
        </mxCell>
        <mxCell id="ISMIpiO5yM2ydOalU18I-157" value="Y" style="edgeLabel;html=1;align=center;verticalAlign=middle;resizable=0;points=[];strokeColor=#E07A5F;fontColor=#393C56;fillColor=#F2CC8F;" vertex="1" connectable="0" parent="ISMIpiO5yM2ydOalU18I-155">
          <mxGeometry x="-0.4926" y="1" relative="1" as="geometry">
            <mxPoint y="1" as="offset" />
          </mxGeometry>
        </mxCell>
        <mxCell id="ISMIpiO5yM2ydOalU18I-163" value="" style="edgeStyle=orthogonalEdgeStyle;rounded=0;orthogonalLoop=1;jettySize=auto;html=1;strokeColor=#E07A5F;fontColor=#393C56;fillColor=#F2CC8F;" edge="1" parent="1" source="ISMIpiO5yM2ydOalU18I-158" target="ISMIpiO5yM2ydOalU18I-162">
          <mxGeometry relative="1" as="geometry" />
        </mxCell>
        <mxCell id="ISMIpiO5yM2ydOalU18I-158" value="发送短信给客户" style="whiteSpace=wrap;html=1;fillColor=#F2CC8F;strokeColor=#E07A5F;fontColor=#393C56;strokeWidth=2;" vertex="1" parent="1">
          <mxGeometry x="4058" y="843.5" width="120" height="60" as="geometry" />
        </mxCell>
        <mxCell id="ISMIpiO5yM2ydOalU18I-161" value="Information request for periodic account review" style="text;html=1;align=center;verticalAlign=middle;whiteSpace=wrap;rounded=0;fontColor=#393C56;" vertex="1" parent="1">
          <mxGeometry x="4124" y="907.75" width="310" height="20" as="geometry" />
        </mxCell>
        <mxCell id="ISMIpiO5yM2ydOalU18I-165" value="" style="edgeStyle=orthogonalEdgeStyle;rounded=0;orthogonalLoop=1;jettySize=auto;html=1;strokeColor=#E07A5F;fontColor=#393C56;fillColor=#F2CC8F;entryX=0.5;entryY=0;entryDx=0;entryDy=0;entryPerimeter=0;" edge="1" parent="1" source="ISMIpiO5yM2ydOalU18I-162" target="ISMIpiO5yM2ydOalU18I-172">
          <mxGeometry relative="1" as="geometry">
            <mxPoint x="4118" y="1143.5" as="targetPoint" />
          </mxGeometry>
        </mxCell>
        <mxCell id="ISMIpiO5yM2ydOalU18I-166" value="Y" style="edgeLabel;html=1;align=center;verticalAlign=middle;resizable=0;points=[];strokeColor=#E07A5F;fontColor=#393C56;fillColor=#F2CC8F;" vertex="1" connectable="0" parent="ISMIpiO5yM2ydOalU18I-165">
          <mxGeometry x="-0.0111" y="2" relative="1" as="geometry">
            <mxPoint as="offset" />
          </mxGeometry>
        </mxCell>
        <mxCell id="ISMIpiO5yM2ydOalU18I-162" value="发送失败" style="rhombus;whiteSpace=wrap;html=1;fillColor=#F2CC8F;strokeColor=#E07A5F;fontColor=#393C56;strokeWidth=2;" vertex="1" parent="1">
          <mxGeometry x="4078" y="973.5" width="80" height="80" as="geometry" />
        </mxCell>
        <mxCell id="ISMIpiO5yM2ydOalU18I-171" value="往表t_retry_entries写入一条记录后续重试" style="strokeWidth=2;html=1;shape=mxgraph.flowchart.terminator;whiteSpace=wrap;strokeColor=#E07A5F;fontColor=#393C56;fillColor=#F2CC8F;" vertex="1" parent="1">
          <mxGeometry x="3278.5" y="1609" width="182" height="64" as="geometry" />
        </mxCell>
        <mxCell id="ISMIpiO5yM2ydOalU18I-172" value="往表t_retry_entries写入一条记录后续重试" style="strokeWidth=2;html=1;shape=mxgraph.flowchart.terminator;whiteSpace=wrap;strokeColor=#E07A5F;fontColor=#393C56;fillColor=#F2CC8F;" vertex="1" parent="1">
          <mxGeometry x="4070" y="1165" width="100" height="60" as="geometry" />
        </mxCell>
        <mxCell id="ISMIpiO5yM2ydOalU18I-173" style="edgeStyle=orthogonalEdgeStyle;rounded=0;orthogonalLoop=1;jettySize=auto;html=1;exitX=1;exitY=0.5;exitDx=0;exitDy=0;entryX=1;entryY=0.367;entryDx=0;entryDy=0;entryPerimeter=0;strokeColor=#E07A5F;fontColor=#393C56;fillColor=#F2CC8F;" edge="1" parent="1" source="ISMIpiO5yM2ydOalU18I-162" target="ISMIpiO5yM2ydOalU18I-147">
          <mxGeometry relative="1" as="geometry" />
        </mxCell>
        <mxCell id="ISMIpiO5yM2ydOalU18I-174" value="N" style="edgeLabel;html=1;align=center;verticalAlign=middle;resizable=0;points=[];strokeColor=#E07A5F;fontColor=#393C56;fillColor=#F2CC8F;" vertex="1" connectable="0" parent="ISMIpiO5yM2ydOalU18I-173">
          <mxGeometry x="-0.5882" y="-4" relative="1" as="geometry">
            <mxPoint y="1" as="offset" />
          </mxGeometry>
        </mxCell>
        <mxCell id="ISMIpiO5yM2ydOalU18I-176" value="执行实时动作：给客户发送邮件短信" style="text;html=1;align=center;verticalAlign=middle;whiteSpace=wrap;rounded=0;fontColor=#393C56;" vertex="1" parent="1">
          <mxGeometry x="3959" y="480" width="119" height="48" as="geometry" />
        </mxCell>
        <mxCell id="ISMIpiO5yM2ydOalU18I-177" value="" style="rounded=0;whiteSpace=wrap;html=1;strokeColor=#6c8ebf;fillColor=#dae8fc;" vertex="1" parent="1">
          <mxGeometry x="4813" y="477.5" width="580" height="802" as="geometry" />
        </mxCell>
        <mxCell id="ISMIpiO5yM2ydOalU18I-178" value="" style="edgeStyle=orthogonalEdgeStyle;rounded=0;orthogonalLoop=1;jettySize=auto;html=1;strokeColor=#E07A5F;fontColor=#393C56;fillColor=#F2CC8F;" edge="1" parent="1" source="ISMIpiO5yM2ydOalU18I-179" target="ISMIpiO5yM2ydOalU18I-182">
          <mxGeometry relative="1" as="geometry" />
        </mxCell>
        <mxCell id="ISMIpiO5yM2ydOalU18I-179" value="rejectCode=WAT2策略" style="strokeWidth=2;html=1;shape=mxgraph.flowchart.start_2;whiteSpace=wrap;strokeColor=#E07A5F;fontColor=#393C56;fillColor=#F2CC8F;" vertex="1" parent="1">
          <mxGeometry x="4933" y="34.5" width="100" height="100" as="geometry" />
        </mxCell>
        <mxCell id="ISMIpiO5yM2ydOalU18I-180" value="com.zatech.bank.ekyc.provider.service.inner.strategy.auditreject.&lt;div&gt;Wat2RejectCommonStrategyImpl#doBusiness&lt;/div&gt;" style="text;html=1;align=center;verticalAlign=middle;whiteSpace=wrap;rounded=0;fontColor=#393C56;" vertex="1" parent="1">
          <mxGeometry x="4739" y="-61.5" width="488" height="46" as="geometry" />
        </mxCell>
        <mxCell id="ISMIpiO5yM2ydOalU18I-181" value="" style="edgeStyle=orthogonalEdgeStyle;rounded=0;orthogonalLoop=1;jettySize=auto;html=1;strokeColor=#E07A5F;fontColor=#393C56;fillColor=#F2CC8F;" edge="1" parent="1" source="ISMIpiO5yM2ydOalU18I-182" target="ISMIpiO5yM2ydOalU18I-187">
          <mxGeometry relative="1" as="geometry" />
        </mxCell>
        <mxCell id="ISMIpiO5yM2ydOalU18I-182" value="根据sysSeq查询t_process_reject_reason" style="whiteSpace=wrap;html=1;fillColor=#F2CC8F;strokeColor=#E07A5F;fontColor=#393C56;strokeWidth=2;" vertex="1" parent="1">
          <mxGeometry x="4901" y="234.5" width="164" height="69" as="geometry" />
        </mxCell>
        <mxCell id="ISMIpiO5yM2ydOalU18I-183" style="edgeStyle=orthogonalEdgeStyle;rounded=0;orthogonalLoop=1;jettySize=auto;html=1;exitX=1;exitY=0.5;exitDx=0;exitDy=0;strokeColor=#E07A5F;fontColor=#393C56;fillColor=#F2CC8F;" edge="1" parent="1" source="ISMIpiO5yM2ydOalU18I-187" target="ISMIpiO5yM2ydOalU18I-188">
          <mxGeometry relative="1" as="geometry" />
        </mxCell>
        <mxCell id="ISMIpiO5yM2ydOalU18I-184" value="Y" style="edgeLabel;html=1;align=center;verticalAlign=middle;resizable=0;points=[];strokeColor=#E07A5F;fontColor=#393C56;fillColor=#F2CC8F;" vertex="1" connectable="0" parent="ISMIpiO5yM2ydOalU18I-183">
          <mxGeometry x="-0.0943" y="4" relative="1" as="geometry">
            <mxPoint y="1" as="offset" />
          </mxGeometry>
        </mxCell>
        <mxCell id="ISMIpiO5yM2ydOalU18I-185" value="" style="edgeStyle=orthogonalEdgeStyle;rounded=0;orthogonalLoop=1;jettySize=auto;html=1;strokeColor=#E07A5F;fontColor=#393C56;fillColor=#F2CC8F;" edge="1" parent="1" source="ISMIpiO5yM2ydOalU18I-187" target="ISMIpiO5yM2ydOalU18I-190">
          <mxGeometry relative="1" as="geometry" />
        </mxCell>
        <mxCell id="ISMIpiO5yM2ydOalU18I-186" value="N" style="edgeLabel;html=1;align=center;verticalAlign=middle;resizable=0;points=[];strokeColor=#E07A5F;fontColor=#393C56;fillColor=#F2CC8F;" vertex="1" connectable="0" parent="ISMIpiO5yM2ydOalU18I-185">
          <mxGeometry x="-0.1" y="4" relative="1" as="geometry">
            <mxPoint as="offset" />
          </mxGeometry>
        </mxCell>
        <mxCell id="ISMIpiO5yM2ydOalU18I-187" value="查询为空" style="rhombus;whiteSpace=wrap;html=1;fillColor=#F2CC8F;strokeColor=#E07A5F;fontColor=#393C56;strokeWidth=2;" vertex="1" parent="1">
          <mxGeometry x="4943" y="378" width="80" height="80" as="geometry" />
        </mxCell>
        <mxCell id="ISMIpiO5yM2ydOalU18I-188" value="结束" style="strokeWidth=2;html=1;shape=mxgraph.flowchart.terminator;whiteSpace=wrap;strokeColor=#E07A5F;fontColor=#393C56;fillColor=#F2CC8F;" vertex="1" parent="1">
          <mxGeometry x="5208" y="388.5" width="100" height="60" as="geometry" />
        </mxCell>
        <mxCell id="ISMIpiO5yM2ydOalU18I-189" value="" style="edgeStyle=orthogonalEdgeStyle;rounded=0;orthogonalLoop=1;jettySize=auto;html=1;strokeColor=#E07A5F;fontColor=#393C56;fillColor=#F2CC8F;" edge="1" parent="1" source="ISMIpiO5yM2ydOalU18I-190" target="ISMIpiO5yM2ydOalU18I-193">
          <mxGeometry relative="1" as="geometry" />
        </mxCell>
        <mxCell id="ISMIpiO5yM2ydOalU18I-190" value="根据userId查询t_customer_account" style="whiteSpace=wrap;html=1;fillColor=#F2CC8F;strokeColor=#E07A5F;fontColor=#393C56;strokeWidth=2;" vertex="1" parent="1">
          <mxGeometry x="4923" y="548" width="120" height="60" as="geometry" />
        </mxCell>
        <mxCell id="ISMIpiO5yM2ydOalU18I-191" value="" style="edgeStyle=orthogonalEdgeStyle;rounded=0;orthogonalLoop=1;jettySize=auto;html=1;strokeColor=#E07A5F;fontColor=#393C56;fillColor=#F2CC8F;" edge="1" parent="1" source="ISMIpiO5yM2ydOalU18I-193" target="ISMIpiO5yM2ydOalU18I-197">
          <mxGeometry relative="1" as="geometry" />
        </mxCell>
        <mxCell id="ISMIpiO5yM2ydOalU18I-192" value="N" style="edgeLabel;html=1;align=center;verticalAlign=middle;resizable=0;points=[];strokeColor=#E07A5F;fontColor=#393C56;fillColor=#F2CC8F;" vertex="1" connectable="0" parent="ISMIpiO5yM2ydOalU18I-191">
          <mxGeometry x="0.0778" y="2" relative="1" as="geometry">
            <mxPoint as="offset" />
          </mxGeometry>
        </mxCell>
        <mxCell id="ISMIpiO5yM2ydOalU18I-193" value="查询为空" style="rhombus;whiteSpace=wrap;html=1;fillColor=#F2CC8F;strokeColor=#E07A5F;fontColor=#393C56;strokeWidth=2;" vertex="1" parent="1">
          <mxGeometry x="4943" y="678" width="80" height="80" as="geometry" />
        </mxCell>
        <mxCell id="ISMIpiO5yM2ydOalU18I-194" style="edgeStyle=orthogonalEdgeStyle;rounded=0;orthogonalLoop=1;jettySize=auto;html=1;exitX=1;exitY=0.5;exitDx=0;exitDy=0;entryX=0.5;entryY=1;entryDx=0;entryDy=0;entryPerimeter=0;strokeColor=#E07A5F;fontColor=#393C56;fillColor=#F2CC8F;" edge="1" parent="1" source="ISMIpiO5yM2ydOalU18I-193" target="ISMIpiO5yM2ydOalU18I-188">
          <mxGeometry relative="1" as="geometry" />
        </mxCell>
        <mxCell id="ISMIpiO5yM2ydOalU18I-195" value="Y" style="edgeLabel;html=1;align=center;verticalAlign=middle;resizable=0;points=[];strokeColor=#E07A5F;fontColor=#393C56;fillColor=#F2CC8F;" vertex="1" connectable="0" parent="ISMIpiO5yM2ydOalU18I-194">
          <mxGeometry x="-0.4926" y="1" relative="1" as="geometry">
            <mxPoint y="1" as="offset" />
          </mxGeometry>
        </mxCell>
        <mxCell id="ISMIpiO5yM2ydOalU18I-196" value="" style="edgeStyle=orthogonalEdgeStyle;rounded=0;orthogonalLoop=1;jettySize=auto;html=1;strokeColor=#E07A5F;fontColor=#393C56;fillColor=#F2CC8F;" edge="1" parent="1" source="ISMIpiO5yM2ydOalU18I-197" target="ISMIpiO5yM2ydOalU18I-201">
          <mxGeometry relative="1" as="geometry" />
        </mxCell>
        <mxCell id="ISMIpiO5yM2ydOalU18I-197" value="发送短信给客户" style="whiteSpace=wrap;html=1;fillColor=#F2CC8F;strokeColor=#E07A5F;fontColor=#393C56;strokeWidth=2;" vertex="1" parent="1">
          <mxGeometry x="4923" y="848" width="120" height="60" as="geometry" />
        </mxCell>
        <mxCell id="ISMIpiO5yM2ydOalU18I-198" value="Information request for periodic account review" style="text;html=1;align=center;verticalAlign=middle;whiteSpace=wrap;rounded=0;fontColor=#393C56;" vertex="1" parent="1">
          <mxGeometry x="4989" y="912.25" width="310" height="20" as="geometry" />
        </mxCell>
        <mxCell id="ISMIpiO5yM2ydOalU18I-199" value="" style="edgeStyle=orthogonalEdgeStyle;rounded=0;orthogonalLoop=1;jettySize=auto;html=1;strokeColor=#E07A5F;fontColor=#393C56;fillColor=#F2CC8F;entryX=0.5;entryY=0;entryDx=0;entryDy=0;entryPerimeter=0;" edge="1" parent="1" source="ISMIpiO5yM2ydOalU18I-201" target="ISMIpiO5yM2ydOalU18I-202">
          <mxGeometry relative="1" as="geometry">
            <mxPoint x="4983" y="1148" as="targetPoint" />
          </mxGeometry>
        </mxCell>
        <mxCell id="ISMIpiO5yM2ydOalU18I-200" value="Y" style="edgeLabel;html=1;align=center;verticalAlign=middle;resizable=0;points=[];strokeColor=#E07A5F;fontColor=#393C56;fillColor=#F2CC8F;" vertex="1" connectable="0" parent="ISMIpiO5yM2ydOalU18I-199">
          <mxGeometry x="-0.0111" y="2" relative="1" as="geometry">
            <mxPoint as="offset" />
          </mxGeometry>
        </mxCell>
        <mxCell id="ISMIpiO5yM2ydOalU18I-201" value="发送失败" style="rhombus;whiteSpace=wrap;html=1;fillColor=#F2CC8F;strokeColor=#E07A5F;fontColor=#393C56;strokeWidth=2;" vertex="1" parent="1">
          <mxGeometry x="4943" y="978" width="80" height="80" as="geometry" />
        </mxCell>
        <mxCell id="ISMIpiO5yM2ydOalU18I-202" value="往表t_retry_entries写入一条记录后续重试" style="strokeWidth=2;html=1;shape=mxgraph.flowchart.terminator;whiteSpace=wrap;strokeColor=#E07A5F;fontColor=#393C56;fillColor=#F2CC8F;" vertex="1" parent="1">
          <mxGeometry x="4935" y="1169.5" width="100" height="60" as="geometry" />
        </mxCell>
        <mxCell id="ISMIpiO5yM2ydOalU18I-203" style="edgeStyle=orthogonalEdgeStyle;rounded=0;orthogonalLoop=1;jettySize=auto;html=1;exitX=1;exitY=0.5;exitDx=0;exitDy=0;entryX=1;entryY=0.367;entryDx=0;entryDy=0;entryPerimeter=0;strokeColor=#E07A5F;fontColor=#393C56;fillColor=#F2CC8F;" edge="1" parent="1" source="ISMIpiO5yM2ydOalU18I-201" target="ISMIpiO5yM2ydOalU18I-188">
          <mxGeometry relative="1" as="geometry" />
        </mxCell>
        <mxCell id="ISMIpiO5yM2ydOalU18I-204" value="N" style="edgeLabel;html=1;align=center;verticalAlign=middle;resizable=0;points=[];strokeColor=#E07A5F;fontColor=#393C56;fillColor=#F2CC8F;" vertex="1" connectable="0" parent="ISMIpiO5yM2ydOalU18I-203">
          <mxGeometry x="-0.5882" y="-4" relative="1" as="geometry">
            <mxPoint y="1" as="offset" />
          </mxGeometry>
        </mxCell>
        <mxCell id="ISMIpiO5yM2ydOalU18I-205" value="执行实时动作：给客户发送邮件短信" style="text;html=1;align=center;verticalAlign=middle;whiteSpace=wrap;rounded=0;fontColor=#393C56;" vertex="1" parent="1">
          <mxGeometry x="4824" y="484.5" width="119" height="48" as="geometry" />
        </mxCell>
        <mxCell id="ISMIpiO5yM2ydOalU18I-206" value="com.zatech.bank.ekyc.provider.service.inner.strategy.auditreject.&lt;div&gt;Wat3RejectCommonStrategyImpl#doBusiness&lt;/div&gt;" style="text;html=1;align=center;verticalAlign=middle;whiteSpace=wrap;rounded=0;fontColor=#393C56;" vertex="1" parent="1">
          <mxGeometry x="5607" y="-63" width="435" height="67" as="geometry" />
        </mxCell>
        <mxCell id="ISMIpiO5yM2ydOalU18I-209" value="" style="edgeStyle=orthogonalEdgeStyle;rounded=0;orthogonalLoop=1;jettySize=auto;html=1;strokeColor=#E07A5F;fontColor=#393C56;fillColor=#F2CC8F;" edge="1" parent="1" source="ISMIpiO5yM2ydOalU18I-207" target="ISMIpiO5yM2ydOalU18I-208">
          <mxGeometry relative="1" as="geometry" />
        </mxCell>
        <mxCell id="ISMIpiO5yM2ydOalU18I-207" value="rejectCode=WAT3策略" style="strokeWidth=2;html=1;shape=mxgraph.flowchart.start_2;whiteSpace=wrap;strokeColor=#E07A5F;fontColor=#393C56;fillColor=#F2CC8F;" vertex="1" parent="1">
          <mxGeometry x="5798" y="35" width="100" height="100" as="geometry" />
        </mxCell>
        <mxCell id="ISMIpiO5yM2ydOalU18I-211" value="" style="edgeStyle=orthogonalEdgeStyle;rounded=0;orthogonalLoop=1;jettySize=auto;html=1;strokeColor=#E07A5F;fontColor=#393C56;fillColor=#F2CC8F;" edge="1" parent="1" source="ISMIpiO5yM2ydOalU18I-208" target="ISMIpiO5yM2ydOalU18I-210">
          <mxGeometry relative="1" as="geometry" />
        </mxCell>
        <mxCell id="ISMIpiO5yM2ydOalU18I-208" value="根据sysSeq查询t_process_reject_reason" style="whiteSpace=wrap;html=1;fillColor=#F2CC8F;strokeColor=#E07A5F;fontColor=#393C56;strokeWidth=2;" vertex="1" parent="1">
          <mxGeometry x="5749.5" y="237.5" width="197" height="66" as="geometry" />
        </mxCell>
        <mxCell id="ISMIpiO5yM2ydOalU18I-213" style="edgeStyle=orthogonalEdgeStyle;rounded=0;orthogonalLoop=1;jettySize=auto;html=1;exitX=1;exitY=0.5;exitDx=0;exitDy=0;strokeColor=#E07A5F;fontColor=#393C56;fillColor=#F2CC8F;" edge="1" parent="1" source="ISMIpiO5yM2ydOalU18I-210" target="ISMIpiO5yM2ydOalU18I-212">
          <mxGeometry relative="1" as="geometry" />
        </mxCell>
        <mxCell id="ISMIpiO5yM2ydOalU18I-214" value="Y" style="edgeLabel;html=1;align=center;verticalAlign=middle;resizable=0;points=[];strokeColor=#E07A5F;fontColor=#393C56;fillColor=#F2CC8F;" vertex="1" connectable="0" parent="ISMIpiO5yM2ydOalU18I-213">
          <mxGeometry x="0.0728" relative="1" as="geometry">
            <mxPoint x="1" as="offset" />
          </mxGeometry>
        </mxCell>
        <mxCell id="ISMIpiO5yM2ydOalU18I-216" value="" style="edgeStyle=orthogonalEdgeStyle;rounded=0;orthogonalLoop=1;jettySize=auto;html=1;strokeColor=#E07A5F;fontColor=#393C56;fillColor=#F2CC8F;" edge="1" parent="1" source="ISMIpiO5yM2ydOalU18I-210" target="ISMIpiO5yM2ydOalU18I-215">
          <mxGeometry relative="1" as="geometry" />
        </mxCell>
        <mxCell id="ISMIpiO5yM2ydOalU18I-217" value="N" style="edgeLabel;html=1;align=center;verticalAlign=middle;resizable=0;points=[];strokeColor=#E07A5F;fontColor=#393C56;fillColor=#F2CC8F;" vertex="1" connectable="0" parent="ISMIpiO5yM2ydOalU18I-216">
          <mxGeometry x="-0.3222" y="5" relative="1" as="geometry">
            <mxPoint as="offset" />
          </mxGeometry>
        </mxCell>
        <mxCell id="ISMIpiO5yM2ydOalU18I-210" value="查询为空" style="rhombus;whiteSpace=wrap;html=1;fillColor=#F2CC8F;strokeColor=#E07A5F;fontColor=#393C56;strokeWidth=2;" vertex="1" parent="1">
          <mxGeometry x="5808" y="376.5" width="80" height="80" as="geometry" />
        </mxCell>
        <mxCell id="ISMIpiO5yM2ydOalU18I-212" value="结束" style="strokeWidth=2;html=1;shape=mxgraph.flowchart.terminator;whiteSpace=wrap;strokeColor=#E07A5F;fontColor=#393C56;fillColor=#F2CC8F;" vertex="1" parent="1">
          <mxGeometry x="6114" y="387" width="100" height="60" as="geometry" />
        </mxCell>
        <mxCell id="ISMIpiO5yM2ydOalU18I-219" value="" style="edgeStyle=orthogonalEdgeStyle;rounded=0;orthogonalLoop=1;jettySize=auto;html=1;strokeColor=#E07A5F;fontColor=#393C56;fillColor=#F2CC8F;" edge="1" parent="1" source="ISMIpiO5yM2ydOalU18I-215" target="ISMIpiO5yM2ydOalU18I-218">
          <mxGeometry relative="1" as="geometry" />
        </mxCell>
        <mxCell id="ISMIpiO5yM2ydOalU18I-215" value="根据userId查询t_customer_account" style="whiteSpace=wrap;html=1;fillColor=#F2CC8F;strokeColor=#E07A5F;fontColor=#393C56;strokeWidth=2;" vertex="1" parent="1">
          <mxGeometry x="5788" y="546.5" width="120" height="60" as="geometry" />
        </mxCell>
        <mxCell id="ISMIpiO5yM2ydOalU18I-220" style="edgeStyle=orthogonalEdgeStyle;rounded=0;orthogonalLoop=1;jettySize=auto;html=1;exitX=1;exitY=0.5;exitDx=0;exitDy=0;strokeColor=#E07A5F;fontColor=#393C56;fillColor=#F2CC8F;" edge="1" parent="1" source="ISMIpiO5yM2ydOalU18I-218" target="ISMIpiO5yM2ydOalU18I-212">
          <mxGeometry relative="1" as="geometry" />
        </mxCell>
        <mxCell id="ISMIpiO5yM2ydOalU18I-221" value="Y" style="edgeLabel;html=1;align=center;verticalAlign=middle;resizable=0;points=[];strokeColor=#E07A5F;fontColor=#393C56;fillColor=#F2CC8F;" vertex="1" connectable="0" parent="ISMIpiO5yM2ydOalU18I-220">
          <mxGeometry x="-0.3474" y="2" relative="1" as="geometry">
            <mxPoint y="1" as="offset" />
          </mxGeometry>
        </mxCell>
        <mxCell id="ISMIpiO5yM2ydOalU18I-223" value="" style="edgeStyle=orthogonalEdgeStyle;rounded=0;orthogonalLoop=1;jettySize=auto;html=1;strokeColor=#E07A5F;fontColor=#393C56;fillColor=#F2CC8F;" edge="1" parent="1" source="ISMIpiO5yM2ydOalU18I-218" target="ISMIpiO5yM2ydOalU18I-222">
          <mxGeometry relative="1" as="geometry" />
        </mxCell>
        <mxCell id="ISMIpiO5yM2ydOalU18I-224" value="N" style="edgeLabel;html=1;align=center;verticalAlign=middle;resizable=0;points=[];strokeColor=#E07A5F;fontColor=#393C56;fillColor=#F2CC8F;" vertex="1" connectable="0" parent="ISMIpiO5yM2ydOalU18I-223">
          <mxGeometry x="-0.0556" y="-1" relative="1" as="geometry">
            <mxPoint y="1" as="offset" />
          </mxGeometry>
        </mxCell>
        <mxCell id="ISMIpiO5yM2ydOalU18I-218" value="查询为空" style="rhombus;whiteSpace=wrap;html=1;fillColor=#F2CC8F;strokeColor=#E07A5F;fontColor=#393C56;strokeWidth=2;" vertex="1" parent="1">
          <mxGeometry x="5808" y="676.5" width="80" height="80" as="geometry" />
        </mxCell>
        <mxCell id="ISMIpiO5yM2ydOalU18I-226" value="" style="edgeStyle=orthogonalEdgeStyle;rounded=0;orthogonalLoop=1;jettySize=auto;html=1;strokeColor=#E07A5F;fontColor=#393C56;fillColor=#F2CC8F;" edge="1" parent="1" source="ISMIpiO5yM2ydOalU18I-222" target="ISMIpiO5yM2ydOalU18I-225">
          <mxGeometry relative="1" as="geometry" />
        </mxCell>
        <mxCell id="ISMIpiO5yM2ydOalU18I-222" value="查询核心当前账户的状态是否已经包含该状态A04" style="whiteSpace=wrap;html=1;fillColor=#F2CC8F;strokeColor=#E07A5F;fontColor=#393C56;strokeWidth=2;" vertex="1" parent="1">
          <mxGeometry x="5788" y="846.5" width="120" height="60" as="geometry" />
        </mxCell>
        <mxCell id="ISMIpiO5yM2ydOalU18I-228" value="" style="edgeStyle=orthogonalEdgeStyle;rounded=0;orthogonalLoop=1;jettySize=auto;html=1;strokeColor=#E07A5F;fontColor=#393C56;fillColor=#F2CC8F;" edge="1" parent="1" source="ISMIpiO5yM2ydOalU18I-225" target="ISMIpiO5yM2ydOalU18I-227">
          <mxGeometry relative="1" as="geometry" />
        </mxCell>
        <mxCell id="ISMIpiO5yM2ydOalU18I-225" value="根据userId查询t_customer_account获取accountNo" style="whiteSpace=wrap;html=1;fillColor=#F2CC8F;strokeColor=#E07A5F;fontColor=#393C56;strokeWidth=2;" vertex="1" parent="1">
          <mxGeometry x="5788" y="986.5" width="120" height="60" as="geometry" />
        </mxCell>
        <mxCell id="ISMIpiO5yM2ydOalU18I-229" style="edgeStyle=orthogonalEdgeStyle;rounded=0;orthogonalLoop=1;jettySize=auto;html=1;exitX=1;exitY=0.5;exitDx=0;exitDy=0;strokeColor=#E07A5F;fontColor=#393C56;fillColor=#F2CC8F;" edge="1" parent="1" source="ISMIpiO5yM2ydOalU18I-227" target="ISMIpiO5yM2ydOalU18I-212">
          <mxGeometry relative="1" as="geometry" />
        </mxCell>
        <mxCell id="ISMIpiO5yM2ydOalU18I-230" value="Y" style="edgeLabel;html=1;align=center;verticalAlign=middle;resizable=0;points=[];strokeColor=#E07A5F;fontColor=#393C56;fillColor=#F2CC8F;" vertex="1" connectable="0" parent="ISMIpiO5yM2ydOalU18I-229">
          <mxGeometry x="-0.7301" y="3" relative="1" as="geometry">
            <mxPoint y="1" as="offset" />
          </mxGeometry>
        </mxCell>
        <mxCell id="ISMIpiO5yM2ydOalU18I-235" value="" style="edgeStyle=orthogonalEdgeStyle;rounded=0;orthogonalLoop=1;jettySize=auto;html=1;strokeColor=#E07A5F;fontColor=#393C56;fillColor=#F2CC8F;" edge="1" parent="1" source="ISMIpiO5yM2ydOalU18I-227" target="ISMIpiO5yM2ydOalU18I-234">
          <mxGeometry relative="1" as="geometry" />
        </mxCell>
        <mxCell id="ISMIpiO5yM2ydOalU18I-236" value="N" style="edgeLabel;html=1;align=center;verticalAlign=middle;resizable=0;points=[];strokeColor=#E07A5F;fontColor=#393C56;fillColor=#F2CC8F;" vertex="1" connectable="0" parent="ISMIpiO5yM2ydOalU18I-235">
          <mxGeometry x="-0.0875" y="1" relative="1" as="geometry">
            <mxPoint as="offset" />
          </mxGeometry>
        </mxCell>
        <mxCell id="ISMIpiO5yM2ydOalU18I-227" value="查询为空" style="rhombus;whiteSpace=wrap;html=1;fillColor=#F2CC8F;strokeColor=#E07A5F;fontColor=#393C56;strokeWidth=2;" vertex="1" parent="1">
          <mxGeometry x="5808" y="1116.5" width="80" height="80" as="geometry" />
        </mxCell>
        <mxCell id="ISMIpiO5yM2ydOalU18I-238" value="" style="edgeStyle=orthogonalEdgeStyle;rounded=0;orthogonalLoop=1;jettySize=auto;html=1;strokeColor=#E07A5F;fontColor=#393C56;fillColor=#F2CC8F;" edge="1" parent="1" source="ISMIpiO5yM2ydOalU18I-234" target="ISMIpiO5yM2ydOalU18I-237">
          <mxGeometry relative="1" as="geometry" />
        </mxCell>
        <mxCell id="ISMIpiO5yM2ydOalU18I-239" value="N" style="edgeLabel;html=1;align=center;verticalAlign=middle;resizable=0;points=[];strokeColor=#E07A5F;fontColor=#393C56;fillColor=#F2CC8F;" vertex="1" connectable="0" parent="ISMIpiO5yM2ydOalU18I-238">
          <mxGeometry x="0.0667" y="4" relative="1" as="geometry">
            <mxPoint as="offset" />
          </mxGeometry>
        </mxCell>
        <mxCell id="ISMIpiO5yM2ydOalU18I-241" value="" style="edgeStyle=orthogonalEdgeStyle;rounded=0;orthogonalLoop=1;jettySize=auto;html=1;strokeColor=#E07A5F;fontColor=#393C56;fillColor=#F2CC8F;" edge="1" parent="1" source="ISMIpiO5yM2ydOalU18I-234" target="ISMIpiO5yM2ydOalU18I-240">
          <mxGeometry relative="1" as="geometry" />
        </mxCell>
        <mxCell id="ISMIpiO5yM2ydOalU18I-244" value="Y" style="edgeLabel;html=1;align=center;verticalAlign=middle;resizable=0;points=[];strokeColor=#E07A5F;fontColor=#393C56;fillColor=#F2CC8F;" vertex="1" connectable="0" parent="ISMIpiO5yM2ydOalU18I-241">
          <mxGeometry x="-0.0802" y="-3" relative="1" as="geometry">
            <mxPoint as="offset" />
          </mxGeometry>
        </mxCell>
        <mxCell id="ISMIpiO5yM2ydOalU18I-234" value="账户包含A04Z状态" style="rhombus;whiteSpace=wrap;html=1;fillColor=#F2CC8F;strokeColor=#E07A5F;fontColor=#393C56;strokeWidth=2;" vertex="1" parent="1">
          <mxGeometry x="5796" y="1279.5" width="108" height="87.5" as="geometry" />
        </mxCell>
        <mxCell id="ISMIpiO5yM2ydOalU18I-243" value="" style="edgeStyle=orthogonalEdgeStyle;rounded=0;orthogonalLoop=1;jettySize=auto;html=1;strokeColor=#E07A5F;fontColor=#393C56;fillColor=#F2CC8F;" edge="1" parent="1" source="ISMIpiO5yM2ydOalU18I-237" target="ISMIpiO5yM2ydOalU18I-242">
          <mxGeometry relative="1" as="geometry" />
        </mxCell>
        <mxCell id="ISMIpiO5yM2ydOalU18I-237" value="调用核心新增账户状态A04" style="whiteSpace=wrap;html=1;fillColor=#F2CC8F;strokeColor=#E07A5F;fontColor=#393C56;strokeWidth=2;" vertex="1" parent="1">
          <mxGeometry x="5790" y="1460.75" width="120" height="60" as="geometry" />
        </mxCell>
        <mxCell id="ISMIpiO5yM2ydOalU18I-245" style="edgeStyle=orthogonalEdgeStyle;rounded=0;orthogonalLoop=1;jettySize=auto;html=1;exitX=0.5;exitY=1;exitDx=0;exitDy=0;entryX=1;entryY=0.5;entryDx=0;entryDy=0;strokeColor=#E07A5F;fontColor=#393C56;fillColor=#F2CC8F;" edge="1" parent="1" source="ISMIpiO5yM2ydOalU18I-240" target="ISMIpiO5yM2ydOalU18I-242">
          <mxGeometry relative="1" as="geometry" />
        </mxCell>
        <mxCell id="ISMIpiO5yM2ydOalU18I-240" value="调用核心更新账户状态" style="whiteSpace=wrap;html=1;fillColor=#F2CC8F;strokeColor=#E07A5F;fontColor=#393C56;strokeWidth=2;" vertex="1" parent="1">
          <mxGeometry x="5978" y="1293.25" width="120" height="60" as="geometry" />
        </mxCell>
        <mxCell id="ISMIpiO5yM2ydOalU18I-247" value="" style="edgeStyle=orthogonalEdgeStyle;rounded=0;orthogonalLoop=1;jettySize=auto;html=1;strokeColor=#E07A5F;fontColor=#393C56;fillColor=#F2CC8F;" edge="1" parent="1" source="ISMIpiO5yM2ydOalU18I-242" target="ISMIpiO5yM2ydOalU18I-246">
          <mxGeometry relative="1" as="geometry" />
        </mxCell>
        <mxCell id="ISMIpiO5yM2ydOalU18I-248" value="Y" style="edgeLabel;html=1;align=center;verticalAlign=middle;resizable=0;points=[];strokeColor=#E07A5F;fontColor=#393C56;fillColor=#F2CC8F;" vertex="1" connectable="0" parent="ISMIpiO5yM2ydOalU18I-247">
          <mxGeometry x="-0.0611" y="-2" relative="1" as="geometry">
            <mxPoint as="offset" />
          </mxGeometry>
        </mxCell>
        <mxCell id="ISMIpiO5yM2ydOalU18I-255" style="edgeStyle=orthogonalEdgeStyle;rounded=0;orthogonalLoop=1;jettySize=auto;html=1;exitX=1;exitY=0.5;exitDx=0;exitDy=0;strokeColor=#E07A5F;fontColor=#393C56;fillColor=#F2CC8F;entryX=0;entryY=0.5;entryDx=0;entryDy=0;" edge="1" parent="1" source="ISMIpiO5yM2ydOalU18I-242" target="ISMIpiO5yM2ydOalU18I-249">
          <mxGeometry relative="1" as="geometry">
            <mxPoint x="5784" y="1935" as="targetPoint" />
            <Array as="points">
              <mxPoint x="5669" y="1631" />
              <mxPoint x="5669" y="1931" />
            </Array>
          </mxGeometry>
        </mxCell>
        <mxCell id="ISMIpiO5yM2ydOalU18I-264" value="N" style="edgeLabel;html=1;align=center;verticalAlign=middle;resizable=0;points=[];strokeColor=#E07A5F;fontColor=#393C56;fillColor=#F2CC8F;" vertex="1" connectable="0" parent="ISMIpiO5yM2ydOalU18I-255">
          <mxGeometry x="0.1065" y="-4" relative="1" as="geometry">
            <mxPoint as="offset" />
          </mxGeometry>
        </mxCell>
        <mxCell id="ISMIpiO5yM2ydOalU18I-242" value="&amp;nbsp;处理失败" style="rhombus;whiteSpace=wrap;html=1;fillColor=#F2CC8F;strokeColor=#E07A5F;fontColor=#393C56;strokeWidth=2;" vertex="1" parent="1">
          <mxGeometry x="5810" y="1590.75" width="80" height="80" as="geometry" />
        </mxCell>
        <mxCell id="ISMIpiO5yM2ydOalU18I-250" value="" style="edgeStyle=orthogonalEdgeStyle;rounded=0;orthogonalLoop=1;jettySize=auto;html=1;strokeColor=#E07A5F;fontColor=#393C56;fillColor=#F2CC8F;" edge="1" parent="1" source="ISMIpiO5yM2ydOalU18I-246" target="ISMIpiO5yM2ydOalU18I-249">
          <mxGeometry relative="1" as="geometry" />
        </mxCell>
        <mxCell id="ISMIpiO5yM2ydOalU18I-246" value="往表t_retry_entries写入一条记录后续重试" style="whiteSpace=wrap;html=1;fillColor=#F2CC8F;strokeColor=#E07A5F;fontColor=#393C56;strokeWidth=2;" vertex="1" parent="1">
          <mxGeometry x="5790" y="1760.75" width="120" height="60" as="geometry" />
        </mxCell>
        <mxCell id="ISMIpiO5yM2ydOalU18I-252" value="" style="edgeStyle=orthogonalEdgeStyle;rounded=0;orthogonalLoop=1;jettySize=auto;html=1;strokeColor=#E07A5F;fontColor=#393C56;fillColor=#F2CC8F;" edge="1" parent="1" source="ISMIpiO5yM2ydOalU18I-249" target="ISMIpiO5yM2ydOalU18I-251">
          <mxGeometry relative="1" as="geometry" />
        </mxCell>
        <mxCell id="ISMIpiO5yM2ydOalU18I-249" value="发送消息给客户" style="whiteSpace=wrap;html=1;fillColor=#F2CC8F;strokeColor=#E07A5F;fontColor=#393C56;strokeWidth=2;" vertex="1" parent="1">
          <mxGeometry x="5790" y="1900.75" width="120" height="60" as="geometry" />
        </mxCell>
        <mxCell id="ISMIpiO5yM2ydOalU18I-259" style="edgeStyle=orthogonalEdgeStyle;rounded=0;orthogonalLoop=1;jettySize=auto;html=1;exitX=0.5;exitY=1;exitDx=0;exitDy=0;strokeColor=#E07A5F;fontColor=#393C56;fillColor=#F2CC8F;" edge="1" parent="1" source="ISMIpiO5yM2ydOalU18I-251" target="ISMIpiO5yM2ydOalU18I-258">
          <mxGeometry relative="1" as="geometry" />
        </mxCell>
        <mxCell id="ISMIpiO5yM2ydOalU18I-260" value="Y" style="edgeLabel;html=1;align=center;verticalAlign=middle;resizable=0;points=[];strokeColor=#E07A5F;fontColor=#393C56;fillColor=#F2CC8F;" vertex="1" connectable="0" parent="ISMIpiO5yM2ydOalU18I-259">
          <mxGeometry x="-0.068" y="-1" relative="1" as="geometry">
            <mxPoint as="offset" />
          </mxGeometry>
        </mxCell>
        <mxCell id="ISMIpiO5yM2ydOalU18I-251" value="发送失败" style="rhombus;whiteSpace=wrap;html=1;fillColor=#F2CC8F;strokeColor=#E07A5F;fontColor=#393C56;strokeWidth=2;" vertex="1" parent="1">
          <mxGeometry x="5810" y="2030.75" width="80" height="80" as="geometry" />
        </mxCell>
        <mxCell id="ISMIpiO5yM2ydOalU18I-253" value="AML_30 days notification" style="text;html=1;align=center;verticalAlign=middle;whiteSpace=wrap;rounded=0;fontColor=#393C56;" vertex="1" parent="1">
          <mxGeometry x="5960" y="1918" width="151" height="30" as="geometry" />
        </mxCell>
        <mxCell id="ISMIpiO5yM2ydOalU18I-258" value="往表t_retry_entries写入一条记录后续重试" style="strokeWidth=2;html=1;shape=mxgraph.flowchart.terminator;whiteSpace=wrap;strokeColor=#E07A5F;fontColor=#393C56;fillColor=#F2CC8F;" vertex="1" parent="1">
          <mxGeometry x="5783" y="2210" width="134" height="60" as="geometry" />
        </mxCell>
        <mxCell id="ISMIpiO5yM2ydOalU18I-261" style="edgeStyle=orthogonalEdgeStyle;rounded=0;orthogonalLoop=1;jettySize=auto;html=1;exitX=1;exitY=0.5;exitDx=0;exitDy=0;entryX=0.5;entryY=1;entryDx=0;entryDy=0;entryPerimeter=0;strokeColor=#E07A5F;fontColor=#393C56;fillColor=#F2CC8F;" edge="1" parent="1" source="ISMIpiO5yM2ydOalU18I-251" target="ISMIpiO5yM2ydOalU18I-212">
          <mxGeometry relative="1" as="geometry" />
        </mxCell>
        <mxCell id="ISMIpiO5yM2ydOalU18I-262" value="N" style="edgeLabel;html=1;align=center;verticalAlign=middle;resizable=0;points=[];strokeColor=#E07A5F;fontColor=#393C56;fillColor=#F2CC8F;" vertex="1" connectable="0" parent="ISMIpiO5yM2ydOalU18I-261">
          <mxGeometry x="-0.8556" y="-3" relative="1" as="geometry">
            <mxPoint as="offset" />
          </mxGeometry>
        </mxCell>
        <mxCell id="ISMIpiO5yM2ydOalU18I-266" value="执行实时动作：添加A04并发送消息" style="text;html=1;align=center;verticalAlign=middle;whiteSpace=wrap;rounded=0;fontColor=#393C56;" vertex="1" parent="1">
          <mxGeometry x="6180" y="523" width="145" height="48" as="geometry" />
        </mxCell>
        <mxCell id="ISMIpiO5yM2ydOalU18I-267" value="com.zatech.bank.ekyc.provider.service.inner.strategy.auditreject.&lt;div&gt;Wat4RejectCommonStrategyImpl#doBusiness&lt;/div&gt;" style="text;html=1;align=center;verticalAlign=middle;whiteSpace=wrap;rounded=0;fontColor=#393C56;" vertex="1" parent="1">
          <mxGeometry x="6664" y="-69.5" width="409" height="69" as="geometry" />
        </mxCell>
        <mxCell id="ISMIpiO5yM2ydOalU18I-270" value="" style="edgeStyle=orthogonalEdgeStyle;rounded=0;orthogonalLoop=1;jettySize=auto;html=1;strokeColor=#E07A5F;fontColor=#393C56;fillColor=#F2CC8F;" edge="1" parent="1" source="ISMIpiO5yM2ydOalU18I-268" target="ISMIpiO5yM2ydOalU18I-269">
          <mxGeometry relative="1" as="geometry" />
        </mxCell>
        <mxCell id="ISMIpiO5yM2ydOalU18I-268" value="rejectCode=WAT4策略" style="strokeWidth=2;html=1;shape=mxgraph.flowchart.start_2;whiteSpace=wrap;strokeColor=#E07A5F;fontColor=#393C56;fillColor=#F2CC8F;" vertex="1" parent="1">
          <mxGeometry x="6837" y="30" width="100" height="100" as="geometry" />
        </mxCell>
        <mxCell id="ISMIpiO5yM2ydOalU18I-272" value="" style="edgeStyle=orthogonalEdgeStyle;rounded=0;orthogonalLoop=1;jettySize=auto;html=1;strokeColor=#E07A5F;fontColor=#393C56;fillColor=#F2CC8F;" edge="1" parent="1" source="ISMIpiO5yM2ydOalU18I-269" target="ISMIpiO5yM2ydOalU18I-271">
          <mxGeometry relative="1" as="geometry" />
        </mxCell>
        <mxCell id="ISMIpiO5yM2ydOalU18I-269" value="根据sysSeq查询t_process_reject_reason" style="whiteSpace=wrap;html=1;fillColor=#F2CC8F;strokeColor=#E07A5F;fontColor=#393C56;strokeWidth=2;" vertex="1" parent="1">
          <mxGeometry x="6812.5" y="219" width="149" height="64" as="geometry" />
        </mxCell>
        <mxCell id="ISMIpiO5yM2ydOalU18I-274" style="edgeStyle=orthogonalEdgeStyle;rounded=0;orthogonalLoop=1;jettySize=auto;html=1;exitX=1;exitY=0.5;exitDx=0;exitDy=0;strokeColor=#E07A5F;fontColor=#393C56;fillColor=#F2CC8F;" edge="1" parent="1" source="ISMIpiO5yM2ydOalU18I-271" target="ISMIpiO5yM2ydOalU18I-273">
          <mxGeometry relative="1" as="geometry" />
        </mxCell>
        <mxCell id="ISMIpiO5yM2ydOalU18I-275" value="Y" style="edgeLabel;html=1;align=center;verticalAlign=middle;resizable=0;points=[];strokeColor=#E07A5F;fontColor=#393C56;fillColor=#F2CC8F;" vertex="1" connectable="0" parent="ISMIpiO5yM2ydOalU18I-274">
          <mxGeometry x="-0.1486" y="-1" relative="1" as="geometry">
            <mxPoint as="offset" />
          </mxGeometry>
        </mxCell>
        <mxCell id="ISMIpiO5yM2ydOalU18I-277" value="" style="edgeStyle=orthogonalEdgeStyle;rounded=0;orthogonalLoop=1;jettySize=auto;html=1;strokeColor=#E07A5F;fontColor=#393C56;fillColor=#F2CC8F;" edge="1" parent="1" source="ISMIpiO5yM2ydOalU18I-271" target="ISMIpiO5yM2ydOalU18I-276">
          <mxGeometry relative="1" as="geometry" />
        </mxCell>
        <mxCell id="ISMIpiO5yM2ydOalU18I-278" value="N" style="edgeLabel;html=1;align=center;verticalAlign=middle;resizable=0;points=[];strokeColor=#E07A5F;fontColor=#393C56;fillColor=#F2CC8F;" vertex="1" connectable="0" parent="ISMIpiO5yM2ydOalU18I-277">
          <mxGeometry x="-0.1111" y="1" relative="1" as="geometry">
            <mxPoint as="offset" />
          </mxGeometry>
        </mxCell>
        <mxCell id="ISMIpiO5yM2ydOalU18I-271" value="查询为空" style="rhombus;whiteSpace=wrap;html=1;fillColor=#F2CC8F;strokeColor=#E07A5F;fontColor=#393C56;strokeWidth=2;" vertex="1" parent="1">
          <mxGeometry x="6847" y="355" width="80" height="80" as="geometry" />
        </mxCell>
        <mxCell id="ISMIpiO5yM2ydOalU18I-273" value="结束" style="strokeWidth=2;html=1;shape=mxgraph.flowchart.terminator;whiteSpace=wrap;strokeColor=#E07A5F;fontColor=#393C56;fillColor=#F2CC8F;" vertex="1" parent="1">
          <mxGeometry x="7075" y="365" width="100" height="60" as="geometry" />
        </mxCell>
        <mxCell id="ISMIpiO5yM2ydOalU18I-280" value="" style="edgeStyle=orthogonalEdgeStyle;rounded=0;orthogonalLoop=1;jettySize=auto;html=1;strokeColor=#E07A5F;fontColor=#393C56;fillColor=#F2CC8F;" edge="1" parent="1" source="ISMIpiO5yM2ydOalU18I-276" target="ISMIpiO5yM2ydOalU18I-279">
          <mxGeometry relative="1" as="geometry" />
        </mxCell>
        <mxCell id="ISMIpiO5yM2ydOalU18I-276" value="根据userId查询t_customer_account" style="whiteSpace=wrap;html=1;fillColor=#F2CC8F;strokeColor=#E07A5F;fontColor=#393C56;strokeWidth=2;" vertex="1" parent="1">
          <mxGeometry x="6827" y="525" width="120" height="60" as="geometry" />
        </mxCell>
        <mxCell id="ISMIpiO5yM2ydOalU18I-281" style="edgeStyle=orthogonalEdgeStyle;rounded=0;orthogonalLoop=1;jettySize=auto;html=1;exitX=1;exitY=0.5;exitDx=0;exitDy=0;strokeColor=#E07A5F;fontColor=#393C56;fillColor=#F2CC8F;" edge="1" parent="1" source="ISMIpiO5yM2ydOalU18I-279" target="ISMIpiO5yM2ydOalU18I-273">
          <mxGeometry relative="1" as="geometry" />
        </mxCell>
        <mxCell id="ISMIpiO5yM2ydOalU18I-282" value="Y" style="edgeLabel;html=1;align=center;verticalAlign=middle;resizable=0;points=[];strokeColor=#E07A5F;fontColor=#393C56;fillColor=#F2CC8F;" vertex="1" connectable="0" parent="ISMIpiO5yM2ydOalU18I-281">
          <mxGeometry x="-0.453" y="3" relative="1" as="geometry">
            <mxPoint as="offset" />
          </mxGeometry>
        </mxCell>
        <mxCell id="ISMIpiO5yM2ydOalU18I-284" value="" style="edgeStyle=orthogonalEdgeStyle;rounded=0;orthogonalLoop=1;jettySize=auto;html=1;strokeColor=#E07A5F;fontColor=#393C56;fillColor=#F2CC8F;" edge="1" parent="1" source="ISMIpiO5yM2ydOalU18I-279" target="ISMIpiO5yM2ydOalU18I-283">
          <mxGeometry relative="1" as="geometry" />
        </mxCell>
        <mxCell id="ISMIpiO5yM2ydOalU18I-285" value="N" style="edgeLabel;html=1;align=center;verticalAlign=middle;resizable=0;points=[];strokeColor=#E07A5F;fontColor=#393C56;fillColor=#F2CC8F;" vertex="1" connectable="0" parent="ISMIpiO5yM2ydOalU18I-284">
          <mxGeometry x="-0.2889" y="2" relative="1" as="geometry">
            <mxPoint as="offset" />
          </mxGeometry>
        </mxCell>
        <mxCell id="ISMIpiO5yM2ydOalU18I-279" value="查询为空" style="rhombus;whiteSpace=wrap;html=1;fillColor=#F2CC8F;strokeColor=#E07A5F;fontColor=#393C56;strokeWidth=2;" vertex="1" parent="1">
          <mxGeometry x="6847" y="655" width="80" height="80" as="geometry" />
        </mxCell>
        <mxCell id="ISMIpiO5yM2ydOalU18I-287" value="" style="edgeStyle=orthogonalEdgeStyle;rounded=0;orthogonalLoop=1;jettySize=auto;html=1;strokeColor=#E07A5F;fontColor=#393C56;fillColor=#F2CC8F;" edge="1" parent="1" source="ISMIpiO5yM2ydOalU18I-283" target="ISMIpiO5yM2ydOalU18I-286">
          <mxGeometry relative="1" as="geometry" />
        </mxCell>
        <mxCell id="ISMIpiO5yM2ydOalU18I-283" value="上报blockCode=A01" style="whiteSpace=wrap;html=1;fillColor=#F2CC8F;strokeColor=#E07A5F;fontColor=#393C56;strokeWidth=2;" vertex="1" parent="1">
          <mxGeometry x="6827" y="825" width="120" height="60" as="geometry" />
        </mxCell>
        <mxCell id="ISMIpiO5yM2ydOalU18I-289" value="" style="edgeStyle=orthogonalEdgeStyle;rounded=0;orthogonalLoop=1;jettySize=auto;html=1;strokeColor=#E07A5F;fontColor=#393C56;fillColor=#F2CC8F;" edge="1" parent="1" source="ISMIpiO5yM2ydOalU18I-286" target="ISMIpiO5yM2ydOalU18I-288">
          <mxGeometry relative="1" as="geometry" />
        </mxCell>
        <mxCell id="ISMIpiO5yM2ydOalU18I-290" value="Y" style="edgeLabel;html=1;align=center;verticalAlign=middle;resizable=0;points=[];strokeColor=#E07A5F;fontColor=#393C56;fillColor=#F2CC8F;" vertex="1" connectable="0" parent="ISMIpiO5yM2ydOalU18I-289">
          <mxGeometry x="-0.1556" y="1" relative="1" as="geometry">
            <mxPoint as="offset" />
          </mxGeometry>
        </mxCell>
        <mxCell id="ISMIpiO5yM2ydOalU18I-302" style="edgeStyle=orthogonalEdgeStyle;rounded=0;orthogonalLoop=1;jettySize=auto;html=1;exitX=0;exitY=0.5;exitDx=0;exitDy=0;entryX=0;entryY=0.5;entryDx=0;entryDy=0;strokeColor=#E07A5F;fontColor=#393C56;fillColor=#F2CC8F;" edge="1" parent="1" source="ISMIpiO5yM2ydOalU18I-286" target="ISMIpiO5yM2ydOalU18I-291">
          <mxGeometry relative="1" as="geometry">
            <Array as="points">
              <mxPoint x="6689" y="995" />
              <mxPoint x="6689" y="1295" />
            </Array>
          </mxGeometry>
        </mxCell>
        <mxCell id="ISMIpiO5yM2ydOalU18I-303" value="N" style="edgeLabel;html=1;align=center;verticalAlign=middle;resizable=0;points=[];strokeColor=#E07A5F;fontColor=#393C56;fillColor=#F2CC8F;" vertex="1" connectable="0" parent="ISMIpiO5yM2ydOalU18I-302">
          <mxGeometry x="0.1309" y="-1" relative="1" as="geometry">
            <mxPoint as="offset" />
          </mxGeometry>
        </mxCell>
        <mxCell id="ISMIpiO5yM2ydOalU18I-286" value="上报失败" style="rhombus;whiteSpace=wrap;html=1;fillColor=#F2CC8F;strokeColor=#E07A5F;fontColor=#393C56;strokeWidth=2;" vertex="1" parent="1">
          <mxGeometry x="6847" y="955" width="80" height="80" as="geometry" />
        </mxCell>
        <mxCell id="ISMIpiO5yM2ydOalU18I-292" value="" style="edgeStyle=orthogonalEdgeStyle;rounded=0;orthogonalLoop=1;jettySize=auto;html=1;strokeColor=#E07A5F;fontColor=#393C56;fillColor=#F2CC8F;" edge="1" parent="1" source="ISMIpiO5yM2ydOalU18I-288" target="ISMIpiO5yM2ydOalU18I-291">
          <mxGeometry relative="1" as="geometry" />
        </mxCell>
        <mxCell id="ISMIpiO5yM2ydOalU18I-288" value="往表t_retry_entries写入一条记录后续重试" style="whiteSpace=wrap;html=1;fillColor=#F2CC8F;strokeColor=#E07A5F;fontColor=#393C56;strokeWidth=2;" vertex="1" parent="1">
          <mxGeometry x="6827" y="1125" width="120" height="60" as="geometry" />
        </mxCell>
        <mxCell id="ISMIpiO5yM2ydOalU18I-296" value="" style="edgeStyle=orthogonalEdgeStyle;rounded=0;orthogonalLoop=1;jettySize=auto;html=1;strokeColor=#E07A5F;fontColor=#393C56;fillColor=#F2CC8F;" edge="1" parent="1" source="ISMIpiO5yM2ydOalU18I-291" target="ISMIpiO5yM2ydOalU18I-295">
          <mxGeometry relative="1" as="geometry" />
        </mxCell>
        <mxCell id="ISMIpiO5yM2ydOalU18I-291" value="给客户发送消息" style="whiteSpace=wrap;html=1;fillColor=#F2CC8F;strokeColor=#E07A5F;fontColor=#393C56;strokeWidth=2;" vertex="1" parent="1">
          <mxGeometry x="6827" y="1265" width="120" height="60" as="geometry" />
        </mxCell>
        <mxCell id="ISMIpiO5yM2ydOalU18I-293" value="往表t_retry_entries写入一条记录后续重试" style="strokeWidth=2;html=1;shape=mxgraph.flowchart.terminator;whiteSpace=wrap;strokeColor=#E07A5F;fontColor=#393C56;fillColor=#F2CC8F;" vertex="1" parent="1">
          <mxGeometry x="6810" y="1577" width="154" height="63" as="geometry" />
        </mxCell>
        <mxCell id="ISMIpiO5yM2ydOalU18I-297" style="edgeStyle=orthogonalEdgeStyle;rounded=0;orthogonalLoop=1;jettySize=auto;html=1;exitX=0.5;exitY=1;exitDx=0;exitDy=0;strokeColor=#E07A5F;fontColor=#393C56;fillColor=#F2CC8F;" edge="1" parent="1" source="ISMIpiO5yM2ydOalU18I-295" target="ISMIpiO5yM2ydOalU18I-293">
          <mxGeometry relative="1" as="geometry" />
        </mxCell>
        <mxCell id="ISMIpiO5yM2ydOalU18I-298" value="Y" style="edgeLabel;html=1;align=center;verticalAlign=middle;resizable=0;points=[];strokeColor=#E07A5F;fontColor=#393C56;fillColor=#F2CC8F;" vertex="1" connectable="0" parent="ISMIpiO5yM2ydOalU18I-297">
          <mxGeometry x="-0.2745" relative="1" as="geometry">
            <mxPoint as="offset" />
          </mxGeometry>
        </mxCell>
        <mxCell id="ISMIpiO5yM2ydOalU18I-295" value="发送失败" style="rhombus;whiteSpace=wrap;html=1;fillColor=#F2CC8F;strokeColor=#E07A5F;fontColor=#393C56;strokeWidth=2;" vertex="1" parent="1">
          <mxGeometry x="6847" y="1395" width="80" height="80" as="geometry" />
        </mxCell>
        <mxCell id="ISMIpiO5yM2ydOalU18I-299" style="edgeStyle=orthogonalEdgeStyle;rounded=0;orthogonalLoop=1;jettySize=auto;html=1;exitX=1;exitY=0.5;exitDx=0;exitDy=0;entryX=0.5;entryY=1;entryDx=0;entryDy=0;entryPerimeter=0;strokeColor=#E07A5F;fontColor=#393C56;fillColor=#F2CC8F;" edge="1" parent="1" source="ISMIpiO5yM2ydOalU18I-295" target="ISMIpiO5yM2ydOalU18I-273">
          <mxGeometry relative="1" as="geometry" />
        </mxCell>
        <mxCell id="ISMIpiO5yM2ydOalU18I-300" value="N" style="edgeLabel;html=1;align=center;verticalAlign=middle;resizable=0;points=[];strokeColor=#E07A5F;fontColor=#393C56;fillColor=#F2CC8F;" vertex="1" connectable="0" parent="ISMIpiO5yM2ydOalU18I-299">
          <mxGeometry x="-0.8162" y="-3" relative="1" as="geometry">
            <mxPoint as="offset" />
          </mxGeometry>
        </mxCell>
      </root>
    </mxGraphModel>
  </diagram>
</mxfile>
